<?xml version="1.0" encoding="UTF-8"?>
<svg version="1.1" xmlns="http://www.w3.org/2000/svg" width="100" height="100">
<path d="M0 0 C0.83071518 0.28713364 1.66143036 0.57426727 2.51731873 0.87010193 C5.13839891 1.77831173 7.75471481 2.69943947 10.37109375 3.62109375 C12.16050689 4.24370259 13.95021806 4.86545556 15.74023438 5.48632812 C20.09985967 7.00055119 24.4552651 8.52636693 28.80859375 10.05859375 C28.2392306 21.63804251 27.14732978 33.10930687 25.76171875 44.61791992 C25.42880428 47.41128035 25.11482647 50.20641596 24.80078125 53.00195312 C24.58839215 54.78789786 24.37489304 56.57371102 24.16015625 58.359375 C24.06940826 59.19052322 23.97866028 60.02167145 23.88516235 60.87800598 C23.3652821 65.01437742 23.02110022 67.36756405 19.80859375 70.05859375 C17.75820234 71.26782614 15.67191829 72.41686324 13.56640625 73.52734375 C12.9610202 73.84892456 12.35563416 74.17050537 11.73190308 74.50183105 C9.80181566 75.52591723 7.86791593 76.54253261 5.93359375 77.55859375 C4.00719485 78.57606815 2.08163142 79.59509398 0.15670776 80.61535645 C-1.59439742 81.54261198 -3.34767934 82.46575335 -5.10107422 83.38867188 C-8.16615544 84.96714915 -8.16615544 84.96714915 -10.72314453 86.83789062 C-14.0380872 88.47732814 -15.66855427 88.06596494 -19.19140625 87.05859375 C-22.14819336 85.72338867 -22.14819336 85.72338867 -25.21875 84.0390625 C-26.34087891 83.42869141 -27.46300781 82.81832031 -28.61914062 82.18945312 C-29.78914261 81.54181137 -30.95906394 80.89402388 -32.12890625 80.24609375 C-33.28326172 79.61638672 -34.43761719 78.98667969 -35.62695312 78.33789062 C-37.85249044 77.12105927 -40.0708237 75.89093338 -42.28076172 74.64599609 C-45.0507366 73.07640387 -45.0507366 73.07640387 -47.49658203 72.06884766 C-49.3828125 71.234375 -49.3828125 71.234375 -52.19140625 69.05859375 C-52.85786438 66.99960327 -52.85786438 66.99960327 -53.28637695 64.52880859 C-53.44414108 63.63154556 -53.60190521 62.73428253 -53.76445007 61.80982971 C-54.4074351 57.66653905 -54.97963369 53.52221312 -55.48046875 49.359375 C-55.64269424 48.04044502 -55.64269424 48.04044502 -55.80819702 46.69487 C-56.03353525 44.85402171 -56.25695631 43.01293779 -56.47851562 41.17163086 C-56.81691146 38.36690646 -57.16393547 35.56333971 -57.51171875 32.75976562 C-57.73098651 30.95969841 -57.94975387 29.15957016 -58.16796875 27.359375 C-58.27106354 26.53004959 -58.37415833 25.70072418 -58.4803772 24.8462677 C-59.03115717 20.2114889 -59.29369448 15.72598241 -59.19140625 11.05859375 C-50.40189552 7.28715381 -41.51974582 3.87446173 -32.50390625 0.68359375 C-31.87605225 0.45172363 -31.24819824 0.21985352 -30.60131836 -0.01904297 C-28.73817354 -0.70653789 -26.86520063 -1.36720761 -24.9921875 -2.02734375 C-23.90075439 -2.41970215 -22.80932129 -2.81206055 -21.68481445 -3.21630859 C-14.05118598 -4.8007573 -7.18189917 -2.55516477 0 0 Z " fill="#DC2E02" transform="translate(65.19140625,7.94140625)"/>
<path d="M0 0 C8.3401125 2.1338362 16.44186608 4.77565477 24.5625 7.625 C25.73619141 8.03234375 26.90988281 8.4396875 28.11914062 8.859375 C36.70032738 11.85016369 36.70032738 11.85016369 39 13 C38.43442386 23.05112215 37.5409943 33.0185601 36.32543945 43.01098633 C36.0581857 45.22321216 35.80337078 47.43667024 35.54882812 49.65039062 C35.37835001 51.07300624 35.20715378 52.49553603 35.03515625 53.91796875 C34.8844165 55.18406982 34.73367676 56.4501709 34.57836914 57.75463867 C33.7027863 62.66773392 33.7027863 62.66773392 32 65 C29.48144531 66.69165039 29.48144531 66.69165039 26.328125 68.34765625 C25.18859375 68.95287109 24.0490625 69.55808594 22.875 70.18164062 C21.66677383 70.80880023 20.45843956 71.43575164 19.25 72.0625 C18.05674611 72.69232687 16.86403139 73.32317635 15.671875 73.95507812 C10.47531064 76.69673399 5.25558511 79.37220744 0 82 C0 71.44 0 60.88 0 50 C-3.96 50 -7.92 50 -12 50 C-12 49.67 -12 49.34 -12 49 C-4.08 49 3.84 49 12 49 C13.26953125 52.09244792 14.5390625 55.18489583 15.80859375 58.27734375 C18.32502859 61.4038234 18.91538237 61.45587582 22.72265625 61.87890625 C24.14740594 61.94650647 25.57365411 61.99565542 27 62 C26.64397705 61.27337158 26.2879541 60.54674316 25.92114258 59.7980957 C19.28343996 46.22227949 12.71859878 32.61525538 6.48934937 18.84628296 C5.91476723 17.57740646 5.33765145 16.30967411 4.75796509 15.04312134 C3.94804866 13.27056406 3.14954363 11.49280608 2.3515625 9.71484375 C1.89604004 8.70542725 1.44051758 7.69601074 0.97119141 6.65600586 C0 4 0 4 0 0 Z " fill="#B71E1E" transform="translate(50,9)"/>
<path d="M0 0 C0.83071518 0.28713364 1.66143036 0.57426727 2.51731873 0.87010193 C5.13839891 1.77831173 7.75471481 2.69943947 10.37109375 3.62109375 C12.16050689 4.24370259 13.95021806 4.86545556 15.74023438 5.48632812 C20.09985967 7.00055119 24.4552651 8.52636693 28.80859375 10.05859375 C28.2392306 21.63804251 27.14732978 33.10930687 25.76171875 44.61791992 C25.42880428 47.41128035 25.11482647 50.20641596 24.80078125 53.00195312 C24.58839215 54.78789786 24.37489304 56.57371102 24.16015625 58.359375 C24.06940826 59.19052322 23.97866028 60.02167145 23.88516235 60.87800598 C23.3652821 65.01437742 23.02110022 67.36756405 19.80859375 70.05859375 C17.75820234 71.26782614 15.67191829 72.41686324 13.56640625 73.52734375 C12.9610202 73.84892456 12.35563416 74.17050537 11.73190308 74.50183105 C9.80181566 75.52591723 7.86791593 76.54253261 5.93359375 77.55859375 C4.00719485 78.57606815 2.08163142 79.59509398 0.15670776 80.61535645 C-1.59439742 81.54261198 -3.34767934 82.46575335 -5.10107422 83.38867188 C-8.16615544 84.96714915 -8.16615544 84.96714915 -10.72314453 86.83789062 C-14.0380872 88.47732814 -15.66855427 88.06596494 -19.19140625 87.05859375 C-22.14819336 85.72338867 -22.14819336 85.72338867 -25.21875 84.0390625 C-26.34087891 83.42869141 -27.46300781 82.81832031 -28.61914062 82.18945312 C-29.78914261 81.54181137 -30.95906394 80.89402388 -32.12890625 80.24609375 C-33.28326172 79.61638672 -34.43761719 78.98667969 -35.62695312 78.33789062 C-37.85249044 77.12105927 -40.0708237 75.89093338 -42.28076172 74.64599609 C-45.0507366 73.07640387 -45.0507366 73.07640387 -47.49658203 72.06884766 C-49.3828125 71.234375 -49.3828125 71.234375 -52.19140625 69.05859375 C-52.85786438 66.99960327 -52.85786438 66.99960327 -53.28637695 64.52880859 C-53.44414108 63.63154556 -53.60190521 62.73428253 -53.76445007 61.80982971 C-54.4074351 57.66653905 -54.97963369 53.52221312 -55.48046875 49.359375 C-55.64269424 48.04044502 -55.64269424 48.04044502 -55.80819702 46.69487 C-56.03353525 44.85402171 -56.25695631 43.01293779 -56.47851562 41.17163086 C-56.81691146 38.36690646 -57.16393547 35.56333971 -57.51171875 32.75976562 C-57.73098651 30.95969841 -57.94975387 29.15957016 -58.16796875 27.359375 C-58.27106354 26.53004959 -58.37415833 25.70072418 -58.4803772 24.8462677 C-59.03115717 20.2114889 -59.29369448 15.72598241 -59.19140625 11.05859375 C-50.40189552 7.28715381 -41.51974582 3.87446173 -32.50390625 0.68359375 C-31.87605225 0.45172363 -31.24819824 0.21985352 -30.60131836 -0.01904297 C-28.73817354 -0.70653789 -26.86520063 -1.36720761 -24.9921875 -2.02734375 C-23.90075439 -2.41970215 -22.80932129 -2.81206055 -21.68481445 -3.21630859 C-14.05118598 -4.8007573 -7.18189917 -2.55516477 0 0 Z M-26.046875 3.6484375 C-26.78972244 3.91241837 -27.53256989 4.17639923 -28.29792786 4.44837952 C-30.66094906 5.2902863 -33.01984113 6.14317321 -35.37890625 6.99609375 C-36.97696647 7.56644794 -38.57527141 8.13611695 -40.17382812 8.70507812 C-47.29946357 11.10554837 -47.29946357 11.10554837 -54.19140625 14.05859375 C-53.57786357 23.35154535 -52.60523531 32.56976286 -51.46191406 41.80883789 C-51.18877712 44.01735218 -50.92023829 46.22639112 -50.65234375 48.43554688 C-49.94172524 54.24957076 -49.94172524 54.24957076 -49.19140625 60.05859375 C-49.11680176 61.13230225 -49.04219727 62.20601074 -48.96533203 63.31225586 C-48.43262366 66.23347171 -48.43262366 66.23347171 -45.89404297 67.86962891 C-44.39768311 68.60125244 -44.39768311 68.60125244 -42.87109375 69.34765625 C-41.77796875 69.89679688 -40.68484375 70.4459375 -39.55859375 71.01171875 C-38.40617187 71.5634375 -37.25375 72.11515625 -36.06640625 72.68359375 C-33.81333596 73.7998409 -31.56071958 74.91700479 -29.30859375 76.03515625 C-27.70709473 76.80907715 -27.70709473 76.80907715 -26.07324219 77.59863281 C-23.67970669 78.81121688 -21.49909116 80.11302449 -19.26171875 81.58203125 C-16.29980581 83.41091979 -16.29980581 83.41091979 -13.33959961 82.33422852 C-10.3188765 81.11024416 -7.57726313 79.74242221 -4.75 78.125 C-3.75419922 77.55845703 -2.75839844 76.99191406 -1.73242188 76.40820312 C-0.70826172 75.81845703 0.31589844 75.22871094 1.37109375 74.62109375 C2.39912109 74.03521484 3.42714844 73.44933594 4.48632812 72.84570312 C7.26569418 71.25878057 10.04175033 69.66724796 12.80859375 68.05859375 C13.7224585 67.56222412 14.63632324 67.06585449 15.57788086 66.55444336 C18.10477721 65.1897251 18.10477721 65.1897251 18.80859375 62.05859375 C19.1534674 59.73504379 19.46004632 57.40574167 19.74609375 55.07421875 C19.83109131 54.38156921 19.91608887 53.68891968 20.00366211 52.97528076 C20.1833803 51.50275508 20.36147898 50.03003097 20.53808594 48.55712891 C20.80268379 46.35771893 21.07477929 44.15933353 21.34765625 41.9609375 C22.48214314 32.66977267 23.28990278 23.40526853 23.80859375 14.05859375 C14.80092318 10.59978004 5.75795477 7.28666357 -3.37890625 4.18359375 C-4.27504639 3.87349365 -5.17118652 3.56339355 -6.09448242 3.24389648 C-6.94502197 2.95844971 -7.79556152 2.67300293 -8.671875 2.37890625 C-9.42364014 2.12383301 -10.17540527 1.86875977 -10.94995117 1.60595703 C-16.49507812 0.25183715 -20.8147761 1.74163224 -26.046875 3.6484375 Z " fill="#BDB8B8" transform="translate(65.19140625,7.94140625)"/>
<path d="M0 0 C0.66 0 1.32 0 2 0 C2.39678955 0.87922119 2.7935791 1.75844238 3.20239258 2.66430664 C5.06928256 6.79846365 6.94023333 10.93077554 8.8125 15.0625 C9.14992218 15.80742706 9.48734436 16.55235413 9.83499146 17.31985474 C14.70185363 28.05490353 19.66319162 38.73284454 24.84887695 49.31860352 C25.2687085 50.18155029 25.68854004 51.04449707 26.12109375 51.93359375 C26.4864624 52.67665771 26.85183105 53.41972168 27.22827148 54.18530273 C28 56 28 56 28 58 C25.03 58 22.06 58 19 58 C17.02 54.04 15.04 50.08 13 46 C5.08 46 -2.84 46 -11 46 C-12.98 49.96 -14.96 53.92 -17 58 C-19.97 58 -22.94 58 -26 58 C-24.5574544 53.34552947 -22.68818166 48.99498327 -20.5859375 44.609375 C-20.25477936 43.91087433 -19.92362122 43.21237366 -19.58242798 42.4927063 C-18.87827606 41.00780646 -18.17270628 39.52357827 -17.46582031 38.03997803 C-15.64391722 34.21522522 -13.83310394 30.38524215 -12.0234375 26.5546875 C-11.6707782 25.80845123 -11.3181189 25.06221497 -10.95477295 24.29336548 C-7.16462891 16.25644563 -3.53102534 8.15388089 0 0 Z " fill="#BCB8B8" transform="translate(49,13)"/>
<path d="M0 0 C0.33 0 0.66 0 1 0 C2.11754659 14.1400686 0.06111478 23.69033338 -7 36 C-4.36 36 -1.72 36 1 36 C1 38.64 1 41.28 1 44 C0.20335938 43.93296875 -0.59328125 43.8659375 -1.4140625 43.796875 C-4.94859473 43.74527599 -7.63318444 43.88201163 -11 45 C-13.87374128 48.68954696 -15.48579264 52.5968444 -17 57 C-19.97 57 -22.94 57 -26 57 C-24.55365531 52.33731153 -22.68389956 47.97214771 -20.5859375 43.57421875 C-20.25260406 42.86836136 -19.91927063 42.16250397 -19.57583618 41.43525696 C-18.51207158 39.18448314 -17.44366228 36.93595188 -16.375 34.6875 C-15.68067346 33.22085274 -14.98666062 31.75405693 -14.29296875 30.28710938 C-12.906133 27.35523857 -11.51760225 24.42417949 -10.12792969 21.49365234 C-6.73603843 14.33660798 -3.36892882 7.16787354 0 0 Z " fill="#EDE8E7" transform="translate(49,14)"/>
<path d="M0 0 C3 1 3 1 4.60546875 3.87109375 C5.12753906 5.04800781 5.64960937 6.22492187 6.1875 7.4375 C6.71730469 8.61183594 7.24710938 9.78617188 7.79296875 10.99609375 C9 14 9 14 9 16 C3.72 16 -1.56 16 -7 16 C-5.61777376 11.85332129 -4.33435798 8.44059185 -2.375 4.625 C-1.92898437 3.75101563 -1.48296875 2.87703125 -1.0234375 1.9765625 C-0.68570313 1.32429688 -0.34796875 0.67203125 0 0 Z " fill="#B72121" transform="translate(49,34)"/>
<path d="M0 0 C0.33 0 0.66 0 1 0 C1 5.28 1 10.56 1 16 C-1.64 16 -4.28 16 -7 16 C-5.35433477 10.31497465 -2.70967216 5.23318364 0 0 Z " fill="#DD3208" transform="translate(49,34)"/>
</svg>
