<svg version="1.1" id="Layer_1" xmlns="http://www.w3.org/2000/svg" xmlns:xlink="http://www.w3.org/1999/xlink" x="0px" y="0px"
	 width="100%" viewBox="0 0 1200 418" enable-background="new 0 0 1200 418" xml:space="preserve">
<path fill="#FEFFFF" opacity="1.000000" stroke="none" 
	d="
M1201.000000,223.000000 
	C1201.000000,288.281403 1201.000000,353.562775 1201.000000,419.000000 
	C1085.310791,419.000000 969.621460,419.000000 853.623718,418.608032 
	C861.830688,416.790955 870.509644,415.995239 878.833191,413.832001 
	C915.395874,404.329651 940.571167,382.292969 951.467651,345.532898 
	C957.480896,325.246979 958.422119,304.191223 958.391052,283.227478 
	C958.339478,248.441666 957.485474,213.657349 957.023926,178.871658 
	C956.910278,170.308380 957.006958,161.742310 957.006958,152.984360 
	C958.659058,152.984360 960.296448,152.565750 961.595398,153.051682 
	C970.659912,156.442413 973.318176,150.698380 976.280090,143.833878 
	C981.584778,131.539307 987.679138,119.585449 993.557861,107.248978 
	C992.305359,106.888420 991.532288,106.607315 990.734924,106.444786 
	C959.799316,100.139153 928.580933,96.864250 896.981018,97.876129 
	C873.908630,98.614944 851.253174,101.830940 829.534546,110.037979 
	C798.988403,121.580742 775.621826,140.887024 764.462158,172.451828 
	C755.674866,197.306458 755.215271,222.792404 762.171021,248.127975 
	C769.198792,273.726013 784.622070,292.823486 809.180176,303.667938 
	C829.415344,312.603455 850.721313,313.955017 872.304016,310.376251 
	C879.698730,309.150116 886.839600,306.393219 894.470520,304.229614 
	C894.291931,308.125824 894.224182,311.928070 893.927002,315.712311 
	C891.780518,343.046051 876.837891,358.748901 849.929504,362.097382 
	C828.267212,364.793091 807.076233,362.616089 786.441101,355.642517 
	C778.523010,352.966553 770.865417,349.519501 762.831543,346.321259 
	C762.831543,365.508301 762.751953,384.493347 762.987549,403.474548 
	C763.005737,404.939880 764.983704,407.243134 766.486206,407.688690 
	C776.665833,410.707550 786.937073,413.432159 797.232849,416.038452 
	C802.093628,417.268890 807.073853,418.027557 812.000000,419.000000 
	C541.782959,419.000000 271.565918,419.000000 1.000000,419.000000 
	C1.000000,354.644440 1.000000,290.288269 1.371748,225.620651 
	C1.838897,225.797409 1.960125,226.282120 2.026000,226.774246 
	C5.374834,251.792358 15.016582,273.477570 35.549599,289.220978 
	C55.001812,304.135742 77.756546,309.761871 101.594322,311.967834 
	C127.773827,314.390472 153.809952,312.329346 179.751663,308.782471 
	C189.233566,307.486084 198.644272,305.669006 208.168152,304.075958 
	C208.168152,302.223541 208.168152,301.069397 208.168152,299.915253 
	C208.168137,201.439163 208.168732,102.963066 208.161163,4.486975 
	C208.161072,3.324646 208.056030,2.162325 208.000000,1.000000 
	C220.689316,1.000000 233.378616,1.000000 246.498993,1.467813 
	C246.930069,24.005091 246.930069,46.074554 246.930069,68.185028 
	C269.144043,68.185028 290.866852,68.185028 313.000000,68.185028 
	C313.000000,45.565235 313.000000,23.282618 313.000000,1.000000 
	C608.881042,1.000000 904.762024,1.000000 1201.000000,1.000000 
	C1201.000000,62.688850 1201.000000,124.378395 1200.620239,186.393127 
	C1199.823242,184.092560 1199.465576,181.455734 1198.980103,178.842621 
	C1192.010986,141.331345 1171.902344,114.633057 1135.011108,102.276154 
	C1114.906128,95.541893 1094.103149,94.772446 1073.304688,98.107094 
	C1036.589844,103.993660 1009.426208,123.055420 995.561035,158.220306 
	C983.685242,188.339630 983.120239,219.338013 992.983093,250.145660 
	C1002.239624,279.059326 1021.541321,298.809967 1050.236328,309.027740 
	C1068.406372,315.497772 1087.167969,316.960144 1106.314453,315.198730 
	C1153.917847,310.819458 1186.268555,283.261810 1197.616821,237.184967 
	C1198.779175,232.465179 1199.873901,227.728714 1201.000000,223.000000 
M671.830872,289.499878 
	C671.830872,296.274353 671.830872,303.048828 671.830872,309.922058 
	C693.932129,309.922058 715.506165,309.922058 737.091187,309.922058 
	C737.261169,309.216705 737.477051,308.741943 737.475464,308.267914 
	C737.314026,259.963104 737.613220,211.650055 736.773987,163.356812 
	C736.297974,135.964676 723.399292,115.766739 697.267700,105.279976 
	C682.223389,99.242615 666.355042,97.431656 650.322021,97.217003 
	C620.723999,96.820740 591.595581,100.815536 562.794617,107.405266 
	C556.410217,108.866035 550.080872,110.567207 544.203857,112.038116 
	C544.203857,178.605270 544.203857,244.319550 544.203857,309.916443 
	C566.179321,309.916443 587.781128,309.916443 609.834900,309.916443 
	C609.834900,307.889343 609.834961,306.093689 609.834961,304.298035 
	C609.834961,255.983307 609.868713,207.668488 609.761902,159.354004 
	C609.754517,156.001221 610.314392,154.055862 614.040588,153.654388 
	C623.757141,152.607544 633.447571,150.405426 643.153931,150.373764 
	C661.174561,150.314972 669.662476,158.777939 671.148743,176.587219 
	C671.549561,181.389465 671.793396,186.219589 671.801697,191.037430 
	C671.857666,223.524841 671.830872,256.012390 671.830872,289.499878 
M463.399109,311.853088 
	C479.550232,310.209137 495.701355,308.565216 512.001221,306.906128 
	C512.001221,304.239380 512.001221,302.420135 512.001221,300.600891 
	C512.001221,256.619568 512.053223,212.638138 511.953583,168.657043 
	C511.935516,160.678329 511.549072,152.680237 510.894409,144.727158 
	C509.232574,124.538139 499.079529,110.472206 479.875183,103.531898 
	C474.285248,101.511734 468.416779,99.934669 462.541443,99.086052 
	C429.365723,94.294289 397.243591,98.758484 366.091461,110.826401 
	C351.982483,116.292007 351.998718,116.333916 351.998718,131.194992 
	C351.998718,143.103577 351.998718,155.012161 351.998718,166.957596 
	C362.178467,163.004608 371.749786,158.859283 381.603302,155.555756 
	C399.103333,149.688644 417.139343,146.885620 435.651459,147.958282 
	C445.818634,148.547409 450.737915,152.391602 451.578247,161.024948 
	C452.118286,166.573257 451.679596,172.216843 451.679596,176.689911 
	C432.732910,180.199615 414.386597,183.314133 396.184784,187.119980 
	C389.586121,188.499710 383.162445,191.144470 376.951508,193.877075 
	C348.379822,206.447723 335.853912,228.016785 338.680115,259.210846 
	C341.096466,285.880707 352.932281,301.422760 377.160522,308.551086 
	C384.918365,310.833557 393.112671,312.693939 401.134918,312.808289 
	C421.569214,313.099487 442.019073,312.296295 463.399109,311.853088 
M214.082718,387.374542 
	C221.736969,390.996857 229.587708,394.265350 236.975403,398.367645 
	C241.782104,401.036774 245.475327,400.446259 250.177719,398.064301 
	C281.487152,382.204742 300.828094,357.288818 307.858459,322.922760 
	C312.658752,299.457703 312.610565,275.598663 312.750519,251.822891 
	C313.032959,203.837189 312.834686,155.848679 312.834686,107.861336 
	C312.834686,106.069557 312.834686,104.277779 312.834686,102.245811 
	C290.685669,102.245811 268.955780,102.245811 246.831070,102.245811 
	C246.831070,104.222855 246.831085,106.011299 246.831085,107.799744 
	C246.831085,151.621521 247.096878,195.445679 246.704102,239.263931 
	C246.540268,257.542175 245.545029,275.858704 243.921509,294.068085 
	C241.066071,326.094452 225.678268,350.178986 196.630386,364.946350 
	C192.072281,367.263611 187.556290,369.663696 182.364426,372.367310 
	C193.138443,377.464996 203.270233,382.258850 214.082718,387.374542 
z"/>
<path fill="#0A2F21" opacity="1.000000" stroke="none" 
	d="
M812.468628,419.000000 
	C807.073853,418.027557 802.093628,417.268890 797.232849,416.038452 
	C786.937073,413.432159 776.665833,410.707550 766.486206,407.688690 
	C764.983704,407.243134 763.005737,404.939880 762.987549,403.474548 
	C762.751953,384.493347 762.831543,365.508301 762.831543,346.321259 
	C770.865417,349.519501 778.523010,352.966553 786.441101,355.642517 
	C807.076233,362.616089 828.267212,364.793091 849.929504,362.097382 
	C876.837891,358.748901 891.780518,343.046051 893.927002,315.712311 
	C894.224182,311.928070 894.291931,308.125824 894.470520,304.229614 
	C886.839600,306.393219 879.698730,309.150116 872.304016,310.376251 
	C850.721313,313.955017 829.415344,312.603455 809.180176,303.667938 
	C784.622070,292.823486 769.198792,273.726013 762.171021,248.127975 
	C755.215271,222.792404 755.674866,197.306458 764.462158,172.451828 
	C775.621826,140.887024 798.988403,121.580742 829.534546,110.037979 
	C851.253174,101.830940 873.908630,98.614944 896.981018,97.876129 
	C928.580933,96.864250 959.799316,100.139153 990.734924,106.444786 
	C991.532288,106.607315 992.305359,106.888420 993.557861,107.248978 
	C987.679138,119.585449 981.584778,131.539307 976.280090,143.833878 
	C973.318176,150.698380 970.659912,156.442413 961.595398,153.051682 
	C960.296448,152.565750 958.659058,152.984360 957.006958,152.984360 
	C957.006958,161.742310 956.910278,170.308380 957.023926,178.871658 
	C957.485474,213.657349 958.339478,248.441666 958.391052,283.227478 
	C958.422119,304.191223 957.480896,325.246979 951.467651,345.532898 
	C940.571167,382.292969 915.395874,404.329651 878.833191,413.832001 
	C870.509644,415.995239 861.830688,416.790955 853.157654,418.608032 
	C839.645752,419.000000 826.291565,419.000000 812.468628,419.000000 
M875.163757,258.950165 
	C880.216492,257.980103 885.254028,256.919067 890.327454,256.073364 
	C893.472107,255.549194 894.623352,254.132141 894.565430,250.769989 
	C894.092102,223.300674 893.805542,195.828094 893.492920,168.356155 
	C893.425720,162.455063 893.483032,156.552551 893.483032,149.861389 
	C884.726501,150.671844 876.995117,150.717529 869.552673,152.207031 
	C850.384949,156.043198 834.811279,165.216797 828.315918,184.887299 
	C823.058289,200.809631 823.242798,217.038147 829.029541,232.900299 
	C833.822815,246.039078 843.224976,254.526611 856.881470,257.565552 
	C862.493958,258.814514 868.440247,258.563721 875.163757,258.950165 
z"/>
<path fill="#0A2F21" opacity="1.000000" stroke="none" 
	d="
M207.531342,1.000000 
	C208.056030,2.162325 208.161072,3.324646 208.161163,4.486975 
	C208.168732,102.963066 208.168137,201.439163 208.168152,299.915253 
	C208.168152,301.069397 208.168152,302.223541 208.168152,304.075958 
	C198.644272,305.669006 189.233566,307.486084 179.751663,308.782471 
	C153.809952,312.329346 127.773827,314.390472 101.594322,311.967834 
	C77.756546,309.761871 55.001812,304.135742 35.549599,289.220978 
	C15.016582,273.477570 5.374834,251.792358 2.026000,226.774246 
	C1.960125,226.282120 1.838897,225.797409 1.371748,225.154617 
	C1.000000,213.645767 1.000000,202.291550 1.378439,190.331726 
	C1.887166,189.076324 2.044416,188.430618 2.143841,187.776138 
	C5.552876,165.335480 13.843919,145.111221 30.076616,128.853088 
	C55.241810,103.648476 86.750580,96.185852 121.089775,97.448128 
	C128.001419,97.702187 134.874039,99.017319 141.778351,99.844879 
	C141.886093,99.567101 142.108597,99.261429 142.108353,98.955940 
	C142.083038,66.303947 142.041046,33.651974 142.000000,1.000000 
	C163.687561,1.000000 185.375122,1.000000 207.531342,1.000000 
M142.166595,223.500046 
	C142.166580,201.524963 142.077545,179.549149 142.261078,157.575607 
	C142.289078,154.221619 141.192307,152.579559 138.100647,152.240479 
	C131.180054,151.481415 124.235039,150.184128 117.318222,150.290695 
	C94.434105,150.643295 77.637230,162.718460 71.311501,183.224533 
	C66.742058,198.037277 66.664810,213.077240 71.067757,227.970108 
	C74.631950,240.025940 81.903954,249.285797 93.445831,254.637543 
	C109.096527,261.894440 125.436012,260.528412 142.166595,258.240021 
	C142.166595,246.768936 142.166595,235.634491 142.166595,223.500046 
z"/>
<path fill="#0A2F21" opacity="1.000000" stroke="none" 
	d="
M1201.000000,222.531342 
	C1199.873901,227.728714 1198.779175,232.465179 1197.616821,237.184967 
	C1186.268555,283.261810 1153.917847,310.819458 1106.314453,315.198730 
	C1087.167969,316.960144 1068.406372,315.497772 1050.236328,309.027740 
	C1021.541321,298.809967 1002.239624,279.059326 992.983093,250.145660 
	C983.120239,219.338013 983.685242,188.339630 995.561035,158.220306 
	C1009.426208,123.055420 1036.589844,103.993660 1073.304688,98.107094 
	C1094.103149,94.772446 1114.906128,95.541893 1135.011108,102.276154 
	C1171.902344,114.633057 1192.010986,141.331345 1198.980103,178.842621 
	C1199.465576,181.455734 1199.823242,184.092560 1200.620239,186.859161 
	C1201.000000,198.687561 1201.000000,210.375122 1201.000000,222.531342 
M1133.999756,203.606583 
	C1133.654907,199.300873 1133.547119,194.960342 1132.920410,190.696045 
	C1131.126709,178.490326 1127.690308,166.810669 1118.208496,158.228317 
	C1099.380127,141.185944 1069.037109,148.730347 1059.493530,173.241409 
	C1051.108154,194.777954 1051.320557,216.915070 1059.267456,238.586975 
	C1065.015625,254.262985 1077.767212,262.933716 1093.519287,262.964081 
	C1110.181885,262.996185 1121.433838,254.665405 1127.976440,239.677582 
	C1132.856812,228.497757 1134.073364,216.630173 1133.999756,203.606583 
z"/>
<path fill="#FFFFFF" opacity="1.000000" stroke="none" 
	d="
M141.531342,1.000000 
	C142.041046,33.651974 142.083038,66.303947 142.108353,98.955940 
	C142.108597,99.261429 141.886093,99.567101 141.778351,99.844879 
	C134.874039,99.017319 128.001419,97.702187 121.089775,97.448128 
	C86.750580,96.185852 55.241810,103.648476 30.076616,128.853088 
	C13.843919,145.111221 5.552876,165.335480 2.143841,187.776138 
	C2.044416,188.430618 1.887166,189.076324 1.378439,189.863068 
	C1.000000,127.083595 1.000000,64.167183 1.000000,1.000000 
	C47.687263,1.000000 94.374969,1.000000 141.531342,1.000000 
z"/>
<path fill="#0D3123" opacity="1.000000" stroke="none" 
	d="
M312.531342,1.000000 
	C313.000000,23.282618 313.000000,45.565235 313.000000,68.185028 
	C290.866852,68.185028 269.144043,68.185028 246.930069,68.185028 
	C246.930069,46.074554 246.930069,24.005091 246.965027,1.467813 
	C268.687561,1.000000 290.375122,1.000000 312.531342,1.000000 
z"/>
<path fill="#0A2F21" opacity="1.000000" stroke="none" 
	d="
M671.830872,288.999878 
	C671.830872,256.012390 671.857666,223.524841 671.801697,191.037430 
	C671.793396,186.219589 671.549561,181.389465 671.148743,176.587219 
	C669.662476,158.777939 661.174561,150.314972 643.153931,150.373764 
	C633.447571,150.405426 623.757141,152.607544 614.040588,153.654388 
	C610.314392,154.055862 609.754517,156.001221 609.761902,159.354004 
	C609.868713,207.668488 609.834961,255.983307 609.834961,304.298035 
	C609.834961,306.093689 609.834900,307.889343 609.834900,309.916443 
	C587.781128,309.916443 566.179321,309.916443 544.203857,309.916443 
	C544.203857,244.319550 544.203857,178.605270 544.203857,112.038116 
	C550.080872,110.567207 556.410217,108.866035 562.794617,107.405266 
	C591.595581,100.815536 620.723999,96.820740 650.322021,97.217003 
	C666.355042,97.431656 682.223389,99.242615 697.267700,105.279976 
	C723.399292,115.766739 736.297974,135.964676 736.773987,163.356812 
	C737.613220,211.650055 737.314026,259.963104 737.475464,308.267914 
	C737.477051,308.741943 737.261169,309.216705 737.091187,309.922058 
	C715.506165,309.922058 693.932129,309.922058 671.830872,309.922058 
	C671.830872,303.048828 671.830872,296.274353 671.830872,288.999878 
z"/>
<path fill="#0A2F21" opacity="1.000000" stroke="none" 
	d="
M462.930908,311.892090 
	C442.019073,312.296295 421.569214,313.099487 401.134918,312.808289 
	C393.112671,312.693939 384.918365,310.833557 377.160522,308.551086 
	C352.932281,301.422760 341.096466,285.880707 338.680115,259.210846 
	C335.853912,228.016785 348.379822,206.447723 376.951508,193.877075 
	C383.162445,191.144470 389.586121,188.499710 396.184784,187.119980 
	C414.386597,183.314133 432.732910,180.199615 451.679596,176.689911 
	C451.679596,172.216843 452.118286,166.573257 451.578247,161.024948 
	C450.737915,152.391602 445.818634,148.547409 435.651459,147.958282 
	C417.139343,146.885620 399.103333,149.688644 381.603302,155.555756 
	C371.749786,158.859283 362.178467,163.004608 351.998718,166.957596 
	C351.998718,155.012161 351.998718,143.103577 351.998718,131.194992 
	C351.998718,116.333916 351.982483,116.292007 366.091461,110.826401 
	C397.243591,98.758484 429.365723,94.294289 462.541443,99.086052 
	C468.416779,99.934669 474.285248,101.511734 479.875183,103.531898 
	C499.079529,110.472206 509.232574,124.538139 510.894409,144.727158 
	C511.549072,152.680237 511.935516,160.678329 511.953583,168.657043 
	C512.053223,212.638138 512.001221,256.619568 512.001221,300.600891 
	C512.001221,302.420135 512.001221,304.239380 512.001221,306.906128 
	C495.701355,308.565216 479.550232,310.209137 462.930908,311.892090 
M435.117767,223.613373 
	C425.784882,226.380829 416.103394,228.337097 407.221375,232.153809 
	C399.049957,235.665146 396.265320,243.842300 397.868927,253.247391 
	C399.127869,260.631073 404.085968,265.426971 413.119843,266.735229 
	C427.048218,268.752197 440.844177,267.021881 454.542572,264.585541 
	C454.542572,249.914001 454.542572,235.675201 454.542572,221.098572 
	C448.130829,221.894104 442.047485,222.648895 435.117767,223.613373 
z"/>
<path fill="#0A2F21" opacity="1.000000" stroke="none" 
	d="
M213.742371,387.213623 
	C203.270233,382.258850 193.138443,377.464996 182.364426,372.367310 
	C187.556290,369.663696 192.072281,367.263611 196.630386,364.946350 
	C225.678268,350.178986 241.066071,326.094452 243.921509,294.068085 
	C245.545029,275.858704 246.540268,257.542175 246.704102,239.263931 
	C247.096878,195.445679 246.831085,151.621521 246.831085,107.799744 
	C246.831085,106.011299 246.831070,104.222855 246.831070,102.245811 
	C268.955780,102.245811 290.685669,102.245811 312.834686,102.245811 
	C312.834686,104.277779 312.834686,106.069557 312.834686,107.861336 
	C312.834686,155.848679 313.032959,203.837189 312.750519,251.822891 
	C312.610565,275.598663 312.658752,299.457703 307.858459,322.922760 
	C300.828094,357.288818 281.487152,382.204742 250.177719,398.064301 
	C245.475327,400.446259 241.782104,401.036774 236.975403,398.367645 
	C229.587708,394.265350 221.736969,390.996857 213.742371,387.213623 
z"/>
<path fill="#FEFEFE" opacity="1.000000" stroke="none" 
	d="
M874.699219,258.972656 
	C868.440247,258.563721 862.493958,258.814514 856.881470,257.565552 
	C843.224976,254.526611 833.822815,246.039078 829.029541,232.900299 
	C823.242798,217.038147 823.058289,200.809631 828.315918,184.887299 
	C834.811279,165.216797 850.384949,156.043198 869.552673,152.207031 
	C876.995117,150.717529 884.726501,150.671844 893.483032,149.861389 
	C893.483032,156.552551 893.425720,162.455063 893.492920,168.356155 
	C893.805542,195.828094 894.092102,223.300674 894.565430,250.769989 
	C894.623352,254.132141 893.472107,255.549194 890.327454,256.073364 
	C885.254028,256.919067 880.216492,257.980103 874.699219,258.972656 
z"/>
<path fill="#FEFEFE" opacity="1.000000" stroke="none" 
	d="
M142.166595,224.000061 
	C142.166595,235.634491 142.166595,246.768936 142.166595,258.240021 
	C125.436012,260.528412 109.096527,261.894440 93.445831,254.637543 
	C81.903954,249.285797 74.631950,240.025940 71.067757,227.970108 
	C66.664810,213.077240 66.742058,198.037277 71.311501,183.224533 
	C77.637230,162.718460 94.434105,150.643295 117.318222,150.290695 
	C124.235039,150.184128 131.180054,151.481415 138.100647,152.240479 
	C141.192307,152.579559 142.289078,154.221619 142.261078,157.575607 
	C142.077545,179.549149 142.166580,201.524963 142.166595,224.000061 
z"/>
<path fill="#FEFEFE" opacity="1.000000" stroke="none" 
	d="
M1133.999878,204.088242 
	C1134.073364,216.630173 1132.856812,228.497757 1127.976440,239.677582 
	C1121.433838,254.665405 1110.181885,262.996185 1093.519287,262.964081 
	C1077.767212,262.933716 1065.015625,254.262985 1059.267456,238.586975 
	C1051.320557,216.915070 1051.108154,194.777954 1059.493530,173.241409 
	C1069.037109,148.730347 1099.380127,141.185944 1118.208496,158.228317 
	C1127.690308,166.810669 1131.126709,178.490326 1132.920410,190.696045 
	C1133.547119,194.960342 1133.654907,199.300873 1133.999878,204.088242 
z"/>
<path fill="#FDFDFD" opacity="1.000000" stroke="none" 
	d="
M435.540955,223.508530 
	C442.047485,222.648895 448.130829,221.894104 454.542572,221.098572 
	C454.542572,235.675201 454.542572,249.914001 454.542572,264.585541 
	C440.844177,267.021881 427.048218,268.752197 413.119843,266.735229 
	C404.085968,265.426971 399.127869,260.631073 397.868927,253.247391 
	C396.265320,243.842300 399.049957,235.665146 407.221375,232.153809 
	C416.103394,228.337097 425.784882,226.380829 435.540955,223.508530 
z"/>
</svg>