<?xml version="1.0" encoding="UTF-8"?>
<svg version="1.1" xmlns="http://www.w3.org/2000/svg" width="100" height="100">
<path d="M0 0 C2.33276367 0.23413086 2.33276367 0.23413086 5 1 C6.4855957 2.85766602 6.4855957 2.85766602 7.67578125 5.25390625 C8.32836914 6.53491211 8.32836914 6.53491211 8.99414062 7.84179688 C9.42919922 8.73962891 9.86425781 9.63746094 10.3125 10.5625 C10.9940918 11.91504883 10.9940918 11.91504883 11.68945312 13.29492188 C12.80913413 15.52249778 13.91161608 17.75701027 15 20 C15.46019531 19.38640625 15.92039062 18.7728125 16.39453125 18.140625 C17.9296875 16.09375 19.46484375 14.046875 21 12 C24.29792089 12.99531847 25.53076957 14.58445575 27.140625 17.4765625 C27.85549122 18.85334188 28.55828445 20.23644508 29.25 21.625 C29.61351562 22.33140625 29.97703125 23.0378125 30.3515625 23.765625 C31.24480617 25.50509952 32.12380998 27.25187331 33 29 C33.66386719 28.278125 34.32773437 27.55625 35.01171875 26.8125 C35.89472656 25.884375 36.77773437 24.95625 37.6875 24 C38.55761719 23.071875 39.42773438 22.14375 40.32421875 21.1875 C43.36428881 18.70218725 44.24716797 18.7800538 48 19 C52.89562973 49.08851129 52.89562973 49.08851129 54.8125 61.6875 C54.9360083 62.48639648 55.0595166 63.28529297 55.18676758 64.10839844 C55.69070343 67.46402702 56 70.59636949 56 74 C55.23856689 74.43868408 54.47713379 74.87736816 53.69262695 75.3293457 C50.85030036 76.96717549 48.00820408 78.60540352 45.16625977 80.24389648 C43.93946294 80.95108596 42.71257625 81.65811957 41.4855957 82.36499023 C39.71541709 83.38483736 37.94556931 84.40525657 36.17578125 85.42578125 C35.11270752 86.03848877 34.04963379 86.65119629 32.9543457 87.2824707 C30.03077195 88.93281183 30.03077195 88.93281183 27.48901367 90.72338867 C24.34375783 92.33658561 22.50124035 92.44040584 19 92 C16.01147461 90.6706543 16.01147461 90.6706543 12.90234375 88.82421875 C11.77119141 88.16099609 10.64003906 87.49777344 9.47460938 86.81445312 C8.29540264 86.105752 7.11636761 85.39676509 5.9375 84.6875 C4.75526 83.98904356 3.57232256 83.29176625 2.38867188 82.59570312 C-0.74879375 80.74329188 -3.87672299 78.87620645 -7 77 C-7.9480249 76.43128174 -8.8960498 75.86256348 -9.87280273 75.27661133 C-10.92576538 74.64468872 -10.92576538 74.64468872 -12 74 C-10.05753207 59.14577889 -7.84348387 44.35174954 -5.41064453 29.57006836 C-4.86469776 26.24984604 -4.32468401 22.92869272 -3.78515625 19.60742188 C-3.43784447 17.48431862 -3.09020137 15.36126953 -2.7421875 13.23828125 C-2.50156082 11.75730705 -2.50156082 11.75730705 -2.256073 10.24641418 C-2.10566559 9.33663315 -1.95525818 8.42685211 -1.80029297 7.48950195 C-1.66944305 6.69204056 -1.53859314 5.89457916 -1.40377808 5.07295227 C-1 3 -1 3 0 0 Z " fill="#FFC300" transform="translate(28,4)"/>
<path d="M0 0 C2.33276367 0.23413086 2.33276367 0.23413086 5 1 C6.4855957 2.85766602 6.4855957 2.85766602 7.67578125 5.25390625 C8.32836914 6.53491211 8.32836914 6.53491211 8.99414062 7.84179688 C9.42919922 8.73962891 9.86425781 9.63746094 10.3125 10.5625 C10.9940918 11.91504883 10.9940918 11.91504883 11.68945312 13.29492188 C12.80913413 15.52249778 13.91161608 17.75701027 15 20 C15.46019531 19.38640625 15.92039062 18.7728125 16.39453125 18.140625 C17.9296875 16.09375 19.46484375 14.046875 21 12 C24.79946833 13.23840764 26.11473833 15.43099586 27.88867188 18.90820312 C28.19353516 19.53662109 28.49839844 20.16503906 28.8125 20.8125 C29.13669922 21.42931641 29.46089844 22.04613281 29.79492188 22.68164062 C31.18515837 25.48295228 32.01636859 27.59020078 31.890625 30.73828125 C30.90010459 33.25368177 29.90637138 34.53619074 27.9375 36.375 C27.11572266 37.16003906 27.11572266 37.16003906 26.27734375 37.9609375 C24.97062285 39.1309346 23.65669707 40.29322439 22.32299805 41.43237305 C16.57297547 46.36768247 11.25352746 51.66635155 5.9375 57.0625 C0.46569093 62.61640673 -4.98683048 68.03118014 -11 73 C-12.48804572 70.02390856 -11.65166527 67.84388858 -11.11962891 64.57836914 C-11.01409195 63.91965317 -10.90855499 63.26093719 -10.79981995 62.58226013 C-10.44832347 60.39882771 -10.08757783 58.21703336 -9.7265625 56.03515625 C-9.48041564 54.52070444 -9.23476581 53.00617177 -8.98959351 51.49156189 C-8.47389328 48.31411017 -7.95393485 45.13739525 -7.43066406 41.96118164 C-6.75984251 37.88879382 -6.09680668 33.81518914 -5.43660927 29.74106693 C-4.92916515 26.6120691 -4.41897854 23.4835238 -3.90781784 20.35513115 C-3.66249613 18.8533018 -3.41770474 17.35138573 -3.17345047 15.8493824 C-2.8312632 13.74949727 -2.48572703 11.65019157 -2.13916016 9.55102539 C-1.84484604 7.75804771 -1.84484604 7.75804771 -1.54458618 5.92884827 C-1 3 -1 3 0 0 Z " fill="#FF9B00" transform="translate(28,4)"/>
<path d="M0 0 C8.2255274 9.40060275 8.2255274 9.40060275 7.89038086 14.74951172 C6.53298054 18.18041827 3.97642137 20.43032723 1.390625 22.97265625 C0.82680115 23.53697861 0.26297729 24.10130096 -0.31793213 24.682724 C-1.51142434 25.87387801 -2.70860548 27.06134566 -3.90917969 28.24536133 C-5.73807387 30.05072729 -7.55335436 31.8689696 -9.3671875 33.68945312 C-10.53046113 34.84714738 -11.69449928 36.00407404 -12.859375 37.16015625 C-13.39914978 37.70084244 -13.93892456 38.24152863 -14.49505615 38.79859924 C-17.45591271 41.70485906 -20.34012964 44.03706307 -24 46 C-22.52121818 41.05084342 -20.42952123 36.71880804 -18.0078125 32.1875 C-17.62060028 31.4555542 -17.23338806 30.7236084 -16.83444214 29.96948242 C-16.01797851 28.42867658 -15.19926154 26.88906289 -14.37841797 25.35058594 C-13.13046767 23.01025375 -11.89088924 20.66563286 -10.65234375 18.3203125 C-9.8546617 16.81744548 -9.05650037 15.31483273 -8.2578125 13.8125 C-7.89100372 13.11858154 -7.52419495 12.42466309 -7.14627075 11.7097168 C-4.96865631 7.63989166 -2.62264185 3.79917479 0 0 Z " fill="#FF7000" transform="translate(43,28)"/>
</svg>
