<?xml version="1.0" encoding="UTF-8"?>
<svg version="1.1" xmlns="http://www.w3.org/2000/svg" width="100" height="100">
<path d="M0 0 C-5.31014254 6.44690639 -11.17126884 12.29949437 -17.0859375 18.18359375 C-18.15375345 19.24954109 -19.22134622 20.31571205 -20.28872681 21.38209534 C-23.07792318 24.16750139 -25.870111 26.94988929 -28.66296387 29.73162842 C-31.52063575 32.57901064 -34.37542502 35.42927986 -37.23046875 38.27929688 C-42.81751842 43.85567081 -48.40773634 49.42885494 -54 55 C-57.85027991 53.21799313 -60.2799142 50.92324595 -63.25 47.875 C-64.14203125 46.96492188 -65.0340625 46.05484375 -65.953125 45.1171875 C-66.62859375 44.41851562 -67.3040625 43.71984375 -68 43 C-64.32572848 34.85870642 -56.73778454 28.42904138 -50.66967773 22.03564453 C-48.94869477 20.19685667 -47.25439802 18.3326778 -45.58959961 16.44287109 C-31.63660026 0.64550177 -20.93421523 -2.9823663 0 0 Z " fill="#40C3FF" transform="translate(80,8)"/>
<path d="M0 0 C-4.52991796 5.43733055 -9.34294216 10.46458931 -14.375 15.4375 C-15.11105469 16.16904297 -15.84710938 16.90058594 -16.60546875 17.65429688 C-18.40136074 19.43852723 -20.19955985 21.22036124 -22 23 C-17.48025507 28.43224863 -12.66524448 33.42589918 -7.625 38.375 C-6.17744675 39.79720206 -4.73200489 41.22155755 -3.2890625 42.6484375 C-2.34087646 43.57922119 -2.34087646 43.57922119 -1.37353516 44.52880859 C0 46 0 46 0 47 C-22.17136019 50.63506593 -22.17136019 50.63506593 -30.43798828 44.84082031 C-37.50896351 39.18636895 -43.42082401 32.08162403 -49 25 C-39.49694953 3.82632182 -21.81514504 -3.54032493 0 0 Z " fill="#3FC3FE" transform="translate(80,45)"/>
<path d="M0 0 C2.99655926 1.33149907 4.81292712 3.27516793 7.11621094 5.60351562 C7.80689667 6.29701111 7.80689667 6.29701111 8.51153564 7.0045166 C9.47981011 7.97949605 10.44448873 8.95805821 11.40576172 9.93994141 C12.88350903 11.44897413 14.37178541 12.94695066 15.86230469 14.44335938 C23.13183594 21.78381137 23.13183594 21.78381137 23.13183594 22.94726562 C-2.28503649 24.68594875 -2.28503649 24.68594875 -7.88769531 20.72070312 C-10.27186739 18.2422812 -12.17659976 15.93551803 -13.86816406 12.94726562 C-11.89860139 10.58658412 -9.89462764 8.25927635 -7.86816406 5.94726562 C-7.34222656 5.34140625 -6.81628906 4.73554687 -6.27441406 4.11132812 C-2.42814898 -0.06854158 -2.42814898 -0.06854158 0 0 Z " fill="#01569B" transform="translate(56.8681640625,69.052734375)"/>
<path d="M0 0 C4.66666667 4 9.33333333 8 14 12 C9.66666667 16.33333333 5.33333333 20.66666667 1 25 C-2.68069887 23.46356148 -4.98775204 21.21849055 -7.75 18.375 C-8.54921875 17.55773437 -9.3484375 16.74046875 -10.171875 15.8984375 C-10.77515625 15.27195312 -11.3784375 14.64546875 -12 14 C-10.41332422 10.09714233 -7.86649519 7.66479018 -4.875 4.75 C-3.96492188 3.85796875 -3.05484375 2.9659375 -2.1171875 2.046875 C-1.41851562 1.37140625 -0.71984375 0.6959375 0 0 Z " fill="#03A8F3" transform="translate(43,56)"/>
<path d="M0 0 C2.48131229 1.20063498 2.82721051 2.48499387 3.9375 4.9375 C2.37729133 5.58884925 0.81421421 6.23332964 -0.75 6.875 C-1.62011719 7.23464844 -2.49023438 7.59429687 -3.38671875 7.96484375 C-5.94429265 8.8945312 -8.3846323 9.47912625 -11.0625 9.9375 C-10.12659496 8.8319811 -9.18870142 7.72814547 -8.25 6.625 C-7.72792969 6.01011719 -7.20585938 5.39523438 -6.66796875 4.76171875 C-2.41289818 -0.07311813 -2.41289818 -0.07311813 0 0 Z " fill="#074994" transform="translate(58.0625,70.0625)"/>
</svg>
