<?xml version="1.0" encoding="UTF-8"?>
<svg version="1.1" xmlns="http://www.w3.org/2000/svg" width="100" height="100">
<path d="M0 0 C-2.5348975 2.027918 -5.05351524 4.03858075 -7.6875 5.9375 C-10.32610101 8.29084684 -11.35227369 9.51847109 -12 13 C-11.00522247 15.33556463 -10.00484883 17.66875071 -9 20 C-9.1664707 24.99412088 -9.4065708 26.4065708 -13 30 C-9.7 30 -6.4 30 -3 30 C-6.61253911 34.14379486 -8.57478854 35.4525016 -14 36 C-17.12686039 36.10441618 -20.24687588 36.09492872 -23.375 36.0625 C-24.62216797 36.05573242 -24.62216797 36.05573242 -25.89453125 36.04882812 C-27.92971897 36.03713164 -29.96486923 36.01919935 -32 36 C-32 36.99 -32 37.98 -32 39 C-22.64545999 39.24432967 -22.64545999 39.24432967 -13.375 38.25 C-10 38 -10 38 -7.5 39.9375 C-7.005 40.618125 -6.51 41.29875 -6 42 C-13.80563342 45.90281671 -21.48792953 45.27891493 -30 45 C-30 45.66 -30 46.32 -30 47 C-29.44538086 46.94875977 -28.89076172 46.89751953 -28.31933594 46.84472656 C-25.79759625 46.62429846 -23.27443971 46.43685983 -20.75 46.25 C-19.87730469 46.16878906 -19.00460938 46.08757812 -18.10546875 46.00390625 C-11.58401668 45.55586756 -11.58401668 45.55586756 -8.390625 47.984375 C-7.93171875 48.64953125 -7.4728125 49.3146875 -7 50 C-13.76183064 53.82802002 -20.32664805 53.34314931 -27.9375 53.1875 C-29.19369141 53.17396484 -30.44988281 53.16042969 -31.74414062 53.14648438 C-34.82987279 53.11128591 -37.91471024 53.06204305 -41 53 C-41.33 53.66 -41.66 54.32 -42 55 C-29.53335386 58.20244121 -10.8872006 59.87780398 1 54 C2.33861214 51.99306167 2.33861214 51.99306167 3 50 C4.32 50.33 5.64 50.66 7 51 C7.375 53.25 7.375 53.25 7 56 C-3.10700752 64.62793325 -19.3855026 63.77843909 -32 63 C-39.35121484 62.18376518 -45.38075471 61.02719912 -51 56 C-50.51963048 51.43648961 -50.51963048 51.43648961 -48.4375 49.6875 C-44.43317233 48.55807425 -39.79742986 48.10128507 -36 50 C-35.855625 49.360625 -35.71125 48.72125 -35.5625 48.0625 C-35 46 -35 46 -34 45 C-35.65 44.01 -37.3 43.02 -39 42 C-38.125 38.125 -38.125 38.125 -37 37 C-39.64 36.01 -42.28 35.02 -45 34 C-44.67 32.35 -44.34 30.7 -44 29 C-38.60539047 26.72858546 -33.73842251 26.79586639 -28 27 C-31 29 -31 29 -33 30 C-30.54101345 30.08076963 -28.08466258 30.14037143 -25.625 30.1875 C-24.92632812 30.21263672 -24.22765625 30.23777344 -23.5078125 30.26367188 C-21.23252323 30.32978561 -21.23252323 30.32978561 -18 30 C-15.69453381 27.20011357 -15.69453381 27.20011357 -16.1875 24.125 C-16.81680402 20.9799524 -16.81680402 20.9799524 -18.625 18.625 C-20.2166401 15.58641435 -20.34840434 13.37562104 -19.7734375 9.99609375 C-17.98111565 5.37045503 -13.67951144 2.92373129 -9.5 0.625 C-6.28323643 -0.17919089 -3.30072556 -0.12944022 0 0 Z " fill="#1464C0" transform="translate(69,23)"/>
<path d="M0 0 C0 0.66 0 1.32 0 2 C-0.969375 2.12375 -1.93875 2.2475 -2.9375 2.375 C-3.948125 2.58125 -4.95875 2.7875 -6 3 C-6.33 3.66 -6.66 4.32 -7 5 C5.46664614 8.20244121 24.1127994 9.87780398 36 4 C37.33861214 1.99306167 37.33861214 1.99306167 38 0 C39.32 0.33 40.64 0.66 42 1 C42.375 3.25 42.375 3.25 42 6 C31.89299248 14.62793325 15.6144974 13.77843909 3 13 C-4.35121484 12.18376518 -10.38075471 11.02719912 -16 6 C-15.51963048 1.43648961 -15.51963048 1.43648961 -13.4375 -0.3125 C-8.91750715 -1.58736978 -4.47457084 -1.49152361 0 0 Z " fill="#1464C0" transform="translate(34,73)"/>
<path d="M0 0 C0.66 0 1.32 0 2 0 C4.3635962 3.69311907 4.50338992 6.68522922 4 11 C1.81152539 15.98768631 -1.62482779 19.68732205 -5.375 23.5625 C-8.52603314 26.96413415 -8.52603314 26.96413415 -9.25 31.5 C-7.7201852 35.78348144 -5.99298318 39.91206706 -4 44 C-9.6131052 42.63924722 -12.61031425 38.37378806 -16 34 C-17.65460173 30.69079653 -17.75121231 27.54947816 -17 24 C-13.65499542 18.62555667 -8.53377632 14.54168926 -3.69921875 10.54296875 C-1.76731446 8.91432017 -1.76731446 8.91432017 0 6 C0.16699232 2.87478167 0.16699232 2.87478167 0 0 Z " fill="#F44134" transform="translate(54,8)"/>
<path d="M0 0 C-2.5348975 2.027918 -5.05351524 4.03858075 -7.6875 5.9375 C-10.32610101 8.29084684 -11.35227369 9.51847109 -12 13 C-11.00522247 15.33556463 -10.00484883 17.66875071 -9 20 C-9 24.45452025 -9.28722519 26.24971072 -12.375 29.5 C-13.24125 29.995 -14.1075 30.49 -15 31 C-15.99 30.67 -16.98 30.34 -18 30 C-17.34 29.01 -16.68 28.02 -16 27 C-16.22353001 23.57253985 -16.67478134 21.47531959 -18.625 18.625 C-20.2166401 15.58641435 -20.34840434 13.37562104 -19.7734375 9.99609375 C-17.98111565 5.37045503 -13.67951144 2.92373129 -9.5 0.625 C-6.28323643 -0.17919089 -3.30072556 -0.12944022 0 0 Z " fill="#F44334" transform="translate(69,23)"/>
<path d="M0 0 C-1.3715448 4.48869208 -2.99028545 6.54507272 -7 9 C-20.31072299 14.87680977 -36.75371774 13.00590356 -50.32421875 9.0703125 C-53 8 -53 8 -54 6 C-53.175 6.144375 -52.35 6.28875 -51.5 6.4375 C-31.04970943 9.72415384 -17.62208269 0 0 0 Z " fill="#1364C0" transform="translate(82,80)"/>
<path d="M0 0 C3.5 0.5 3.5 0.5 5.5 2.5625 C6.82169618 6.44498254 6.69269515 8.57112184 5.5 12.5 C1.51369959 16.77103615 -1.85683412 18.25850351 -7.5 19.5 C-6.27483247 16.60414946 -4.9829377 14.93483888 -2.8125 12.5625 C-0.16901572 9.75502369 -0.16901572 9.75502369 -0.6875 6.625 C-0.955625 5.92375 -1.22375 5.2225 -1.5 4.5 C-3.15 4.17 -4.8 3.84 -6.5 3.5 C-4.52232577 0.70798932 -3.47731797 0.49675971 0 0 Z " fill="#1364C1" transform="translate(72.5,49.5)"/>
</svg>
