<?xml version="1.0" encoding="UTF-8"?>
<!DOCTYPE svg PUBLIC "-//W3C//DTD SVG 1.1//EN" "http://www.w3.org/Graphics/SVG/1.1/DTD/svg11.dtd">
<svg xmlns="http://www.w3.org/2000/svg" version="1.1" width="500px" height="500px" style="shape-rendering:geometricPrecision; text-rendering:geometricPrecision; image-rendering:optimizeQuality; fill-rule:evenodd; clip-rule:evenodd" xmlns:xlink="http://www.w3.org/1999/xlink">
<g><path style="opacity:0.11" fill="#000001" d="M 268.5,499.5 C 258.167,499.5 247.833,499.5 237.5,499.5C 184.6,469.809 131.433,441.142 78,413.5C 59.0855,402.96 40.2522,392.293 21.5,381.5C 20.7695,378.891 20.2695,376.224 20,373.5C 19.3333,293.833 19.3333,214.167 20,134.5C 20.056,131.22 20.8893,128.22 22.5,125.5C 96.9793,85.501 171.313,45.3343 245.5,5C 254.374,2.6149 262.208,4.44823 269,10.5C 320.106,36.7404 370.606,63.9071 420.5,92C 442.613,102.889 464.28,114.556 485.5,127C 485.167,127.333 484.833,127.667 484.5,128C 485.578,128.674 486.245,129.674 486.5,131C 486.5,213 486.5,295 486.5,377C 486.375,378.627 485.875,380.127 485,381.5C 420.249,416.545 355.582,451.878 291,487.5C 290.667,487.167 290.333,486.833 290,486.5C 289.221,487.728 288.221,488.728 287,489.5C 280.592,492.565 274.425,495.898 268.5,499.5 Z"/></g>
<g><path style="opacity:1" fill="#193556" d="M 249.5,6.5 C 250.167,6.5 250.833,6.5 251.5,6.5C 251.842,7.33825 252.508,7.67158 253.5,7.5C 326.332,47.4172 399.332,87.0839 472.5,126.5C 474.488,208.022 475.154,289.689 474.5,371.5C 400.484,412.844 325.818,453.178 250.5,492.5C 249.501,447.67 249.168,402.67 249.5,357.5C 251.451,357.773 252.951,357.107 254,355.5C 257.741,337.452 261.575,319.452 265.5,301.5C 259.537,300.955 253.87,301.621 248.5,303.5C 248.467,299.131 248.8,294.798 249.5,290.5C 247.901,290.768 246.568,290.434 245.5,289.5C 257.505,289.667 269.505,289.5 281.5,289C 285.864,288.025 289.864,286.525 293.5,284.5C 302.238,282.438 310.572,278.938 318.5,274C 320.01,271.245 322.343,270.079 325.5,270.5C 325.088,268.027 326.088,266.694 328.5,266.5C 330.882,264.785 332.882,262.785 334.5,260.5C 338.863,254.792 342.863,248.792 346.5,242.5C 348.104,241.713 348.771,240.38 348.5,238.5C 347.127,238.343 345.793,238.51 344.5,239C 341.961,243.264 338.461,246.431 334,248.5C 333.536,249.094 333.369,249.761 333.5,250.5C 328.992,253.923 323.992,256.59 318.5,258.5C 315.294,259.079 312.294,260.079 309.5,261.5C 307.972,262.309 306.306,262.976 304.5,263.5C 286.737,265.182 269.07,264.516 251.5,261.5C 251.5,261.167 251.5,260.833 251.5,260.5C 251.217,259.711 250.717,259.044 250,258.5C 249.5,246.838 249.333,235.171 249.5,223.5C 257.487,225.789 265.487,228.289 273.5,231C 291.447,233.206 308.781,231.206 325.5,225C 329.621,220.448 334.288,216.615 339.5,213.5C 341.531,212.461 342.864,210.795 343.5,208.5C 344.583,208.461 345.583,208.127 346.5,207.5C 348.287,205.05 349.62,202.384 350.5,199.5C 350.472,197.418 351.139,195.584 352.5,194C 352.167,193.833 351.833,193.667 351.5,193.5C 347.365,196.135 343.699,199.302 340.5,203C 337.259,204.778 333.926,206.278 330.5,207.5C 327.9,208.468 325.566,209.801 323.5,211.5C 319.134,212.415 314.801,213.415 310.5,214.5C 302.11,214.409 293.777,213.742 285.5,212.5C 284.081,211.549 282.415,211.216 280.5,211.5C 280.38,210.414 279.713,209.747 278.5,209.5C 274.482,208.492 270.482,207.492 266.5,206.5C 262.306,203.718 257.973,200.884 253.5,198C 251.536,196.549 250.203,194.716 249.5,192.5C 249.5,130.5 249.5,68.5 249.5,6.5 Z"/></g>
<g><path style="opacity:1" fill="#172c45" d="M 248.5,6.5 C 248.833,6.5 249.167,6.5 249.5,6.5C 249.5,68.5 249.5,130.5 249.5,192.5C 245.203,189.871 241.537,186.537 238.5,182.5C 236.501,179.028 234.501,175.695 232.5,172.5C 231.588,168.847 230.255,165.514 228.5,162.5C 227.391,157.043 226.058,151.543 224.5,146C 224.743,145.098 225.077,144.265 225.5,143.5C 226.546,138.954 227.546,134.287 228.5,129.5C 230.559,127.74 231.892,125.406 232.5,122.5C 232.5,121.167 232.5,119.833 232.5,118.5C 231.5,118.5 230.5,118.5 229.5,118.5C 229.649,119.552 229.483,120.552 229,121.5C 226.324,124.206 224.158,127.206 222.5,130.5C 220.537,131.96 218.704,133.627 217,135.5C 214.46,141.596 212.96,147.93 212.5,154.5C 211.191,156.571 210.525,159.071 210.5,162C 210.657,165.684 210.99,169.351 211.5,173C 211.608,174.681 212.275,175.848 213.5,176.5C 214.12,181.417 215.62,186.084 218,190.5C 220.497,195.161 223.331,199.494 226.5,203.5C 229.563,207.566 233.229,210.899 237.5,213.5C 241.324,217.152 245.324,220.485 249.5,223.5C 249.333,235.171 249.5,246.838 250,258.5C 250.717,259.044 251.217,259.711 251.5,260.5C 249.833,260.5 248.167,260.5 246.5,260.5C 246.631,259.624 246.298,258.957 245.5,258.5C 243.199,257.675 240.865,257.008 238.5,256.5C 222.232,249.545 208.232,239.545 196.5,226.5C 195.344,223.43 193.344,221.097 190.5,219.5C 186.761,213.696 183.261,207.696 180,201.5C 178.515,196.879 177.348,192.212 176.5,187.5C 176.975,184.918 176.308,182.918 174.5,181.5C 174.334,173.493 174.5,165.493 175,157.5C 175.633,153.653 176.467,149.986 177.5,146.5C 178.834,143.627 180.167,140.627 181.5,137.5C 181.167,136.833 180.833,136.167 180.5,135.5C 176.544,139.103 173.21,143.103 170.5,147.5C 168.259,148.3 167.259,149.966 167.5,152.5C 166.5,152.5 165.5,152.5 164.5,152.5C 162.517,157.157 160.517,161.824 158.5,166.5C 158.5,166.833 158.5,167.167 158.5,167.5C 155.23,175.035 153.896,183.035 154.5,191.5C 154.612,196.849 154.945,202.183 155.5,207.5C 155.585,209.333 156.252,210.666 157.5,211.5C 157.443,213.884 157.777,216.218 158.5,218.5C 161.36,223.535 163.527,228.869 165,234.5C 168.455,237.75 171.288,241.416 173.5,245.5C 174.136,247.795 175.469,249.461 177.5,250.5C 186.029,259.525 195.362,267.692 205.5,275C 210.116,277.155 214.782,278.989 219.5,280.5C 221.942,281.719 224.276,283.219 226.5,285C 229.063,286.079 231.729,286.579 234.5,286.5C 237.287,287.477 240.287,287.81 243.5,287.5C 243.833,288.5 244.5,289.167 245.5,289.5C 246.568,290.434 247.901,290.768 249.5,290.5C 248.8,294.798 248.467,299.131 248.5,303.5C 248.5,304.5 248.5,305.5 248.5,306.5C 246.837,308.438 246.171,310.772 246.5,313.5C 244.265,323.006 242.265,332.672 240.5,342.5C 235.456,342.827 230.456,342.494 225.5,341.5C 225.192,340.692 224.692,340.025 224,339.5C 225.116,326.75 226.949,314.083 229.5,301.5C 224.125,301.172 218.792,301.505 213.5,302.5C 211.083,311.415 209.083,320.415 207.5,329.5C 205.981,332.526 205.315,335.859 205.5,339.5C 205.667,341.833 205.833,344.167 206,346.5C 206.278,347.416 206.778,348.082 207.5,348.5C 209.255,351.485 211.588,353.985 214.5,356C 226.119,357.361 237.786,357.861 249.5,357.5C 249.168,402.67 249.501,447.67 250.5,492.5C 250.44,493.043 250.107,493.376 249.5,493.5C 174.833,453.167 100.167,412.833 25.5,372.5C 24.8222,291.147 24.1556,209.814 23.5,128.5C 24.1667,128.5 24.5,128.167 24.5,127.5C 25.4916,127.672 26.1583,127.338 26.5,126.5C 31.5003,124.336 36.167,121.669 40.5,118.5C 41.4916,118.672 42.1583,118.338 42.5,117.5C 43.1667,117.5 43.5,117.167 43.5,116.5C 44.4916,116.672 45.1583,116.338 45.5,115.5C 46.4916,115.672 47.1583,115.338 47.5,114.5C 48.4916,114.672 49.1583,114.338 49.5,113.5C 50.4916,113.672 51.1583,113.338 51.5,112.5C 52.4916,112.672 53.1583,112.338 53.5,111.5C 54.4916,111.672 55.1583,111.338 55.5,110.5C 56.4916,110.672 57.1583,110.338 57.5,109.5C 58.4916,109.672 59.1583,109.338 59.5,108.5C 60.4916,108.672 61.1583,108.338 61.5,107.5C 62.4916,107.672 63.1583,107.338 63.5,106.5C 64.4916,106.672 65.1583,106.338 65.5,105.5C 66.4916,105.672 67.1583,105.338 67.5,104.5C 68.4916,104.672 69.1583,104.338 69.5,103.5C 70.1667,103.5 70.5,103.167 70.5,102.5C 71.4916,102.672 72.1583,102.338 72.5,101.5C 73.4916,101.672 74.1583,101.338 74.5,100.5C 79.4291,98.2252 84.0958,95.5585 88.5,92.5C 89.4916,92.6716 90.1583,92.3382 90.5,91.5C 91.4916,91.6716 92.1583,91.3382 92.5,90.5C 93.4916,90.6716 94.1583,90.3382 94.5,89.5C 95.1667,89.5 95.5,89.1667 95.5,88.5C 96.4916,88.6716 97.1583,88.3382 97.5,87.5C 98.4916,87.6716 99.1583,87.3382 99.5,86.5C 100.492,86.6716 101.158,86.3382 101.5,85.5C 102.492,85.6716 103.158,85.3382 103.5,84.5C 104.492,84.6716 105.158,84.3382 105.5,83.5C 106.492,83.6716 107.158,83.3382 107.5,82.5C 108.492,82.6716 109.158,82.3382 109.5,81.5C 110.492,81.6716 111.158,81.3382 111.5,80.5C 112.492,80.6716 113.158,80.3382 113.5,79.5C 114.492,79.6716 115.158,79.3382 115.5,78.5C 116.492,78.6716 117.158,78.3382 117.5,77.5C 118.492,77.6716 119.158,77.3382 119.5,76.5C 120.167,76.5 120.5,76.1667 120.5,75.5C 121.492,75.6716 122.158,75.3382 122.5,74.5C 125.974,72.6816 129.307,70.6816 132.5,68.5C 133.492,68.6716 134.158,68.3382 134.5,67.5C 135.492,67.6716 136.158,67.3382 136.5,66.5C 137.492,66.6716 138.158,66.3382 138.5,65.5C 139.492,65.6716 140.158,65.3382 140.5,64.5C 141.492,64.6716 142.158,64.3382 142.5,63.5C 143.492,63.6716 144.158,63.3382 144.5,62.5C 145.167,62.5 145.5,62.1667 145.5,61.5C 146.791,61.7373 147.791,61.404 148.5,60.5C 149.492,60.6716 150.158,60.3382 150.5,59.5C 151.167,59.5 151.5,59.1667 151.5,58.5C 152.492,58.6716 153.158,58.3382 153.5,57.5C 154.492,57.6716 155.158,57.3382 155.5,56.5C 156.492,56.6716 157.158,56.3382 157.5,55.5C 158.492,55.6716 159.158,55.3382 159.5,54.5C 160.492,54.6716 161.158,54.3382 161.5,53.5C 162.492,53.6716 163.158,53.3382 163.5,52.5C 164.492,52.6716 165.158,52.3382 165.5,51.5C 166.167,51.5 166.5,51.1667 166.5,50.5C 171.123,48.6366 175.456,46.3032 179.5,43.5C 180.167,43.5 180.5,43.1667 180.5,42.5C 181.492,42.6716 182.158,42.3382 182.5,41.5C 183.492,41.6716 184.158,41.3382 184.5,40.5C 185.492,40.6716 186.158,40.3382 186.5,39.5C 187.492,39.6716 188.158,39.3382 188.5,38.5C 189.492,38.6716 190.158,38.3382 190.5,37.5C 191.492,37.6716 192.158,37.3382 192.5,36.5C 193.492,36.6716 194.158,36.3382 194.5,35.5C 195.492,35.6716 196.158,35.3382 196.5,34.5C 197.492,34.6716 198.158,34.3382 198.5,33.5C 199.492,33.6716 200.158,33.3382 200.5,32.5C 201.492,32.6716 202.158,32.3382 202.5,31.5C 203.167,31.5 203.5,31.1667 203.5,30.5C 204.492,30.6716 205.158,30.3382 205.5,29.5C 206.492,29.6716 207.158,29.3382 207.5,28.5C 208.492,28.6716 209.158,28.3382 209.5,27.5C 210.492,27.6716 211.158,27.3382 211.5,26.5C 212.492,26.6716 213.158,26.3382 213.5,25.5C 218.037,23.0699 222.37,20.4032 226.5,17.5C 227.791,17.7373 228.791,17.404 229.5,16.5C 230.492,16.6716 231.158,16.3382 231.5,15.5C 232.167,15.5 232.5,15.1667 232.5,14.5C 233.492,14.6716 234.158,14.3382 234.5,13.5C 235.492,13.6716 236.158,13.3382 236.5,12.5C 237.492,12.6716 238.158,12.3382 238.5,11.5C 239.492,11.6716 240.158,11.3382 240.5,10.5C 241.492,10.6716 242.158,10.3382 242.5,9.5C 243.492,9.67158 244.158,9.33825 244.5,8.5C 245.492,8.67158 246.158,8.33825 246.5,7.5C 247.492,7.67158 248.158,7.33825 248.5,6.5 Z"/></g>
<g><path style="opacity:1" fill="#ced4db" d="M 273.5,113.5 C 271.172,114.736 270.006,116.736 270,119.5C 269.501,123.821 269.334,128.154 269.5,132.5C 267.877,128.576 266.877,124.243 266.5,119.5C 264.84,123.027 263.174,126.361 261.5,129.5C 261.119,125.45 262.119,121.783 264.5,118.5C 266.54,115.786 268.873,113.286 271.5,111C 273.061,110.812 273.728,111.645 273.5,113.5 Z"/></g>
<g><path style="opacity:1" fill="#f3f5f6" d="M 269.5,132.5 C 269.833,132.5 270.167,132.5 270.5,132.5C 274.084,147.736 283.084,158.903 297.5,166C 301.974,167.12 306.307,168.286 310.5,169.5C 310.611,170.117 310.944,170.617 311.5,171C 316.5,171.667 321.5,171.667 326.5,171C 327.056,170.617 327.389,170.117 327.5,169.5C 334.647,167.917 340.647,164.25 345.5,158.5C 346.484,160.598 346.151,162.598 344.5,164.5C 341.441,168.892 337.774,172.559 333.5,175.5C 330.474,176.464 327.808,177.797 325.5,179.5C 316.524,180.308 307.524,180.642 298.5,180.5C 294.845,179.39 291.178,178.057 287.5,176.5C 285.407,175.955 283.407,175.122 281.5,174C 277.241,170.718 273.241,167.218 269.5,163.5C 266.573,159.304 264.239,154.971 262.5,150.5C 260.993,146.609 260.326,142.442 260.5,138C 260.502,134.979 260.836,132.146 261.5,129.5C 263.174,126.361 264.84,123.027 266.5,119.5C 266.877,124.243 267.877,128.576 269.5,132.5 Z"/></g>
<g><path style="opacity:1" fill="#5a6d84" d="M 273.5,113.5 C 270.911,119.489 269.911,125.822 270.5,132.5C 270.167,132.5 269.833,132.5 269.5,132.5C 269.334,128.154 269.501,123.821 270,119.5C 270.006,116.736 271.172,114.736 273.5,113.5 Z"/></g>
<g><path style="opacity:1" fill="#c0c5cc" d="M 232.5,122.5 C 229.932,124.027 228.599,126.361 228.5,129.5C 227.546,134.287 226.546,138.954 225.5,143.5C 225.827,138.786 225.493,134.12 224.5,129.5C 223.817,129.863 223.15,130.196 222.5,130.5C 224.158,127.206 226.324,124.206 229,121.5C 229.483,120.552 229.649,119.552 229.5,118.5C 230.5,118.5 231.5,118.5 232.5,118.5C 232.5,119.833 232.5,121.167 232.5,122.5 Z"/></g>
<g><path style="opacity:1" fill="#556476" d="M 232.5,122.5 C 231.892,125.406 230.559,127.74 228.5,129.5C 228.599,126.361 229.932,124.027 232.5,122.5 Z"/></g>
<g><path style="opacity:1" fill="#f6f7f8" d="M 225.5,143.5 C 225.077,144.265 224.743,145.098 224.5,146C 226.058,151.543 227.391,157.043 228.5,162.5C 228.206,166.567 229.54,169.9 232.5,172.5C 234.501,175.695 236.501,179.028 238.5,182.5C 241.537,186.537 245.203,189.871 249.5,192.5C 250.203,194.716 251.536,196.549 253.5,198C 257.973,200.884 262.306,203.718 266.5,206.5C 270.547,209.649 275.213,211.316 280.5,211.5C 282.415,211.216 284.081,211.549 285.5,212.5C 287.658,214.22 290.325,215.053 293.5,215C 299.349,215.818 305.015,215.652 310.5,214.5C 314.801,213.415 319.134,212.415 323.5,211.5C 325.861,211.326 328.194,210.993 330.5,210.5C 330.5,209.5 330.5,208.5 330.5,207.5C 333.926,206.278 337.259,204.778 340.5,203C 343.699,199.302 347.365,196.135 351.5,193.5C 351.833,193.667 352.167,193.833 352.5,194C 351.139,195.584 350.472,197.418 350.5,199.5C 347.99,202.368 345.657,205.368 343.5,208.5C 341.457,209.579 340.124,211.246 339.5,213.5C 334.288,216.615 329.621,220.448 325.5,225C 308.781,231.206 291.447,233.206 273.5,231C 265.487,228.289 257.487,225.789 249.5,223.5C 245.324,220.485 241.324,217.152 237.5,213.5C 234.437,209.434 230.771,206.101 226.5,203.5C 223.331,199.494 220.497,195.161 218,190.5C 215.62,186.084 214.12,181.417 213.5,176.5C 212.813,169.187 212.479,161.854 212.5,154.5C 214.104,151.597 215.104,148.263 215.5,144.5C 217.849,139.748 220.183,135.081 222.5,130.5C 223.15,130.196 223.817,129.863 224.5,129.5C 225.493,134.12 225.827,138.786 225.5,143.5 Z"/></g>
<g><path style="opacity:0.616" fill="#10253e" d="M 472.5,126.5 C 473.15,126.804 473.817,127.137 474.5,127.5C 475.832,208.999 475.832,290.332 474.5,371.5C 475.154,289.689 474.488,208.022 472.5,126.5 Z"/></g>
<g><path style="opacity:1" fill="#b6bcc4" d="M 222.5,130.5 C 220.183,135.081 217.849,139.748 215.5,144.5C 215.104,148.263 214.104,151.597 212.5,154.5C 212.96,147.93 214.46,141.596 217,135.5C 218.704,133.627 220.537,131.96 222.5,130.5 Z"/></g>
<g><path style="opacity:1" fill="#b9bfc6" d="M 177.5,146.5 C 178.052,144.669 178.052,143.003 177.5,141.5C 175.487,143.895 173.154,145.895 170.5,147.5C 173.21,143.103 176.544,139.103 180.5,135.5C 180.833,136.167 181.167,136.833 181.5,137.5C 180.167,140.627 178.834,143.627 177.5,146.5 Z"/></g>
<g><path style="opacity:1" fill="#f9f9fa" d="M 177.5,146.5 C 176.467,149.986 175.633,153.653 175,157.5C 174.5,165.493 174.334,173.493 174.5,181.5C 174.025,184.082 174.692,186.082 176.5,187.5C 177.348,192.212 178.515,196.879 180,201.5C 183.261,207.696 186.761,213.696 190.5,219.5C 191.466,222.794 193.466,225.128 196.5,226.5C 208.232,239.545 222.232,249.545 238.5,256.5C 238.5,257.5 238.5,258.5 238.5,259.5C 241.237,259.401 243.904,259.735 246.5,260.5C 248.167,260.5 249.833,260.5 251.5,260.5C 251.5,260.833 251.5,261.167 251.5,261.5C 255.698,263.796 260.364,264.963 265.5,265C 276.5,265.667 287.5,265.667 298.5,265C 300.708,264.809 302.708,264.309 304.5,263.5C 306.306,262.976 307.972,262.309 309.5,261.5C 313.159,261.851 316.159,260.851 318.5,258.5C 323.992,256.59 328.992,253.923 333.5,250.5C 338.891,248.508 342.891,245.008 345.5,240C 346.167,239.333 346.833,239.333 347.5,240C 346.748,240.671 346.414,241.504 346.5,242.5C 342.863,248.792 338.863,254.792 334.5,260.5C 331.478,261.522 329.478,263.522 328.5,266.5C 326.088,266.694 325.088,268.027 325.5,270.5C 322.343,270.079 320.01,271.245 318.5,274C 310.572,278.938 302.238,282.438 293.5,284.5C 277.096,288.4 260.429,289.4 243.5,287.5C 240.287,287.81 237.287,287.477 234.5,286.5C 230.894,284.697 227.227,282.864 223.5,281C 222.207,280.51 220.873,280.343 219.5,280.5C 214.782,278.989 210.116,277.155 205.5,275C 195.362,267.692 186.029,259.525 177.5,250.5C 176.876,248.246 175.543,246.579 173.5,245.5C 171.288,241.416 168.455,237.75 165,234.5C 163.527,228.869 161.36,223.535 158.5,218.5C 157.777,216.218 157.443,213.884 157.5,211.5C 156.715,204.863 156.048,198.197 155.5,191.5C 156.23,183.454 157.23,175.454 158.5,167.5C 158.5,167.167 158.5,166.833 158.5,166.5C 159.735,166.279 160.735,165.612 161.5,164.5C 163.2,160.294 165.2,156.294 167.5,152.5C 167.259,149.966 168.259,148.3 170.5,147.5C 173.154,145.895 175.487,143.895 177.5,141.5C 178.052,143.003 178.052,144.669 177.5,146.5 Z"/></g>
<g><path style="opacity:1" fill="#7b899c" d="M 262.5,150.5 C 264.239,154.971 266.573,159.304 269.5,163.5C 265.112,160.404 262.779,156.071 262.5,150.5 Z"/></g>
<g><path style="opacity:1" fill="#b7bdc5" d="M 167.5,152.5 C 165.2,156.294 163.2,160.294 161.5,164.5C 160.735,165.612 159.735,166.279 158.5,166.5C 160.517,161.824 162.517,157.157 164.5,152.5C 165.5,152.5 166.5,152.5 167.5,152.5 Z"/></g>
<g><path style="opacity:1" fill="#6b7887" d="M 228.5,162.5 C 230.255,165.514 231.588,168.847 232.5,172.5C 229.54,169.9 228.206,166.567 228.5,162.5 Z"/></g>
<g><path style="opacity:1" fill="#b0b9c5" d="M 310.5,169.5 C 316.167,169.5 321.833,169.5 327.5,169.5C 327.389,170.117 327.056,170.617 326.5,171C 321.5,171.667 316.5,171.667 311.5,171C 310.944,170.617 310.611,170.117 310.5,169.5 Z"/></g>
<g><path style="opacity:1" fill="#9aa3ad" d="M 212.5,154.5 C 212.479,161.854 212.813,169.187 213.5,176.5C 212.275,175.848 211.608,174.681 211.5,173C 210.99,169.351 210.657,165.684 210.5,162C 210.525,159.071 211.191,156.571 212.5,154.5 Z"/></g>
<g><path style="opacity:1" fill="#596c84" d="M 333.5,175.5 C 333.586,176.496 333.252,177.329 332.5,178C 330.26,178.977 327.927,179.477 325.5,179.5C 327.808,177.797 330.474,176.464 333.5,175.5 Z"/></g>
<g><path style="opacity:1" fill="#61738a" d="M 287.5,176.5 C 291.178,178.057 294.845,179.39 298.5,180.5C 293.808,181.488 290.141,180.154 287.5,176.5 Z"/></g>
<g><path style="opacity:1" fill="#acb6c1" d="M 325.5,179.5 C 320.42,181.015 315.086,181.682 309.5,181.5C 305.651,181.499 301.984,181.165 298.5,180.5C 307.524,180.642 316.524,180.308 325.5,179.5 Z"/></g>
<g><path style="opacity:1" fill="#959ea9" d="M 174.5,181.5 C 176.308,182.918 176.975,184.918 176.5,187.5C 174.692,186.082 174.025,184.082 174.5,181.5 Z"/></g>
<g><path style="opacity:1" fill="#52667f" d="M 350.5,199.5 C 349.62,202.384 348.287,205.05 346.5,207.5C 345.583,208.127 344.583,208.461 343.5,208.5C 345.657,205.368 347.99,202.368 350.5,199.5 Z"/></g>
<g><path style="opacity:1" fill="#9099a5" d="M 226.5,203.5 C 230.771,206.101 234.437,209.434 237.5,213.5C 233.229,210.899 229.563,207.566 226.5,203.5 Z"/></g>
<g><path style="opacity:1" fill="#babfc6" d="M 158.5,167.5 C 157.23,175.454 156.23,183.454 155.5,191.5C 156.048,198.197 156.715,204.863 157.5,211.5C 156.252,210.666 155.585,209.333 155.5,207.5C 154.945,202.183 154.612,196.849 154.5,191.5C 153.896,183.035 155.23,175.035 158.5,167.5 Z"/></g>
<g><path style="opacity:1" fill="#afb8c3" d="M 266.5,206.5 C 270.482,207.492 274.482,208.492 278.5,209.5C 279.713,209.747 280.38,210.414 280.5,211.5C 275.213,211.316 270.547,209.649 266.5,206.5 Z"/></g>
<g><path style="opacity:1" fill="#a0acb9" d="M 330.5,207.5 C 330.5,208.5 330.5,209.5 330.5,210.5C 328.194,210.993 325.861,211.326 323.5,211.5C 325.566,209.801 327.9,208.468 330.5,207.5 Z"/></g>
<g><path style="opacity:1" fill="#8f9bab" d="M 343.5,208.5 C 342.864,210.795 341.531,212.461 339.5,213.5C 340.124,211.246 341.457,209.579 343.5,208.5 Z"/></g>
<g><path style="opacity:1" fill="#b3bbc5" d="M 285.5,212.5 C 293.777,213.742 302.11,214.409 310.5,214.5C 305.015,215.652 299.349,215.818 293.5,215C 290.325,215.053 287.658,214.22 285.5,212.5 Z"/></g>
<g><path style="opacity:1" fill="#b1b8c0" d="M 190.5,219.5 C 193.344,221.097 195.344,223.43 196.5,226.5C 193.466,225.128 191.466,222.794 190.5,219.5 Z"/></g>
<g><path style="opacity:1" fill="#acb6c2" d="M 346.5,242.5 C 346.414,241.504 346.748,240.671 347.5,240C 346.833,239.333 346.167,239.333 345.5,240C 342.891,245.008 338.891,248.508 333.5,250.5C 333.369,249.761 333.536,249.094 334,248.5C 338.461,246.431 341.961,243.264 344.5,239C 345.793,238.51 347.127,238.343 348.5,238.5C 348.771,240.38 348.104,241.713 346.5,242.5 Z"/></g>
<g><path style="opacity:1" fill="#959ea9" d="M 173.5,245.5 C 175.543,246.579 176.876,248.246 177.5,250.5C 175.469,249.461 174.136,247.795 173.5,245.5 Z"/></g>
<g><path style="opacity:1" fill="#b3bac2" d="M 238.5,256.5 C 240.865,257.008 243.199,257.675 245.5,258.5C 246.298,258.957 246.631,259.624 246.5,260.5C 243.904,259.735 241.237,259.401 238.5,259.5C 238.5,258.5 238.5,257.5 238.5,256.5 Z"/></g>
<g><path style="opacity:1" fill="#a5b0bc" d="M 318.5,258.5 C 316.159,260.851 313.159,261.851 309.5,261.5C 312.294,260.079 315.294,259.079 318.5,258.5 Z"/></g>
<g><path style="opacity:1" fill="#8c98a8" d="M 251.5,261.5 C 269.07,264.516 286.737,265.182 304.5,263.5C 302.708,264.309 300.708,264.809 298.5,265C 287.5,265.667 276.5,265.667 265.5,265C 260.364,264.963 255.698,263.796 251.5,261.5 Z"/></g>
<g><path style="opacity:1" fill="#8694a5" d="M 334.5,260.5 C 332.882,262.785 330.882,264.785 328.5,266.5C 329.478,263.522 331.478,261.522 334.5,260.5 Z"/></g>
<g><path style="opacity:1" fill="#aeb4bd" d="M 219.5,280.5 C 220.873,280.343 222.207,280.51 223.5,281C 227.227,282.864 230.894,284.697 234.5,286.5C 231.729,286.579 229.063,286.079 226.5,285C 224.276,283.219 221.942,281.719 219.5,280.5 Z"/></g>
<g><path style="opacity:1" fill="#c0c4ca" d="M 181.5,287.5 C 174.492,287.334 167.492,287.5 160.5,288C 157.647,289.43 154.647,290.263 151.5,290.5C 157.459,287.23 163.959,285.564 171,285.5C 174.723,285.701 178.223,286.367 181.5,287.5 Z"/></g>
<g><path style="opacity:1" fill="#f8f9f9" d="M 181.5,287.5 C 191.625,289.455 198.125,295.455 201,305.5C 201.376,318.009 198.876,330.009 193.5,341.5C 195.743,342.474 198.076,342.808 200.5,342.5C 199.341,347.468 198.341,352.468 197.5,357.5C 181.83,357.667 166.163,357.5 150.5,357C 139.446,355.917 132.613,350.084 130,339.5C 127.776,321.168 133.276,305.668 146.5,293C 148.078,291.906 149.745,291.072 151.5,290.5C 154.647,290.263 157.647,289.43 160.5,288C 167.492,287.5 174.492,287.334 181.5,287.5 Z"/></g>
<g><path style="opacity:1" fill="#98a2af" d="M 293.5,284.5 C 289.864,286.525 285.864,288.025 281.5,289C 269.505,289.5 257.505,289.667 245.5,289.5C 244.5,289.167 243.833,288.5 243.5,287.5C 260.429,289.4 277.096,288.4 293.5,284.5 Z"/></g>
<g><path style="opacity:1" fill="#a8b1bd" d="M 431.5,295.5 C 428.913,294.184 425.913,293.517 422.5,293.5C 418.783,293.576 415.117,293.909 411.5,294.5C 411.611,293.883 411.944,293.383 412.5,293C 419.158,292.5 425.825,292.334 432.5,292.5C 432.737,293.791 432.404,294.791 431.5,295.5 Z"/></g>
<g><path style="opacity:1" fill="#f7f8f9" d="M 431.5,295.5 C 418.738,311.709 405.738,327.709 392.5,343.5C 391.492,347.866 390.325,352.2 389,356.5C 383.259,357.475 377.425,357.808 371.5,357.5C 371.776,352.786 372.442,348.119 373.5,343.5C 371.812,335.416 369.812,327.416 367.5,319.5C 373.798,318.504 380.132,318.17 386.5,318.5C 386.125,321.397 386.625,324.063 388,326.5C 395.31,315.37 403.144,304.703 411.5,294.5C 415.117,293.909 418.783,293.576 422.5,293.5C 425.913,293.517 428.913,294.184 431.5,295.5 Z"/></g>
<g><path style="opacity:1" fill="#748190" d="M 111.5,301.5 C 116.975,300.511 122.642,300.178 128.5,300.5C 128.768,302.099 128.434,303.432 127.5,304.5C 127.5,303.5 127.5,302.5 127.5,301.5C 122.167,301.5 116.833,301.5 111.5,301.5 Z"/></g>
<g><path style="opacity:1" fill="#f9f9fa" d="M 320.5,308.5 C 321.423,315.109 321.756,321.776 321.5,328.5C 320.542,330.302 319.875,332.302 319.5,334.5C 306.833,334.5 294.167,334.5 281.5,334.5C 281.216,336.415 281.549,338.081 282.5,339.5C 282.953,340.458 283.619,341.292 284.5,342C 295.161,342.5 305.828,342.667 316.5,342.5C 316.656,346.764 315.989,350.764 314.5,354.5C 308.574,355.79 302.407,356.457 296,356.5C 288.049,356.718 280.216,356.051 272.5,354.5C 269.167,353.167 266.833,350.833 265.5,347.5C 265.5,341.833 265.5,336.167 265.5,330.5C 266.343,315.302 274.01,305.468 288.5,301C 295.833,300.333 303.167,300.333 310.5,301C 315.2,301.833 318.533,304.333 320.5,308.5 Z"/></g>
<g><path style="opacity:1" fill="#f5f6f7" d="M 246.5,313.5 C 248.163,311.562 248.829,309.228 248.5,306.5C 248.5,305.5 248.5,304.5 248.5,303.5C 253.87,301.621 259.537,300.955 265.5,301.5C 261.575,319.452 257.741,337.452 254,355.5C 252.951,357.107 251.451,357.773 249.5,357.5C 237.786,357.861 226.119,357.361 214.5,356C 211.588,353.985 209.255,351.485 207.5,348.5C 206.328,342.178 206.328,335.845 207.5,329.5C 209.083,320.415 211.083,311.415 213.5,302.5C 218.792,301.505 224.125,301.172 229.5,301.5C 226.949,314.083 225.116,326.75 224,339.5C 224.692,340.025 225.192,340.692 225.5,341.5C 230.456,342.494 235.456,342.827 240.5,342.5C 242.265,332.672 244.265,323.006 246.5,313.5 Z"/></g>
<g><path style="opacity:1" fill="#f9fafb" d="M 383.5,310.5 C 383.5,311.833 383.5,313.167 383.5,314.5C 379.629,314.185 375.962,314.518 372.5,315.5C 364.316,315.174 356.316,315.508 348.5,316.5C 345.786,329.978 342.452,343.312 338.5,356.5C 333.5,356.5 328.5,356.5 323.5,356.5C 323.5,355.167 323.5,353.833 323.5,352.5C 323.5,351.833 323.5,351.167 323.5,350.5C 325.163,348.562 325.829,346.228 325.5,343.5C 326.657,340.727 327.324,337.727 327.5,334.5C 328.924,332.485 329.59,330.152 329.5,327.5C 330.845,319.092 332.512,310.758 334.5,302.5C 348.822,301.334 363.155,301.167 377.5,302C 380.878,303.943 382.878,306.776 383.5,310.5 Z"/></g>
<g><path style="opacity:1" fill="#f2f3f4" d="M 111.5,301.5 C 116.833,301.5 122.167,301.5 127.5,301.5C 127.5,302.5 127.5,303.5 127.5,304.5C 127.249,308.249 126.583,311.915 125.5,315.5C 119.833,315.5 114.167,315.5 108.5,315.5C 108.302,310.464 109.302,305.797 111.5,301.5 Z"/></g>
<g><path style="opacity:1" fill="#172c45" d="M 175.5,302.5 C 179.404,303.281 181.737,305.615 182.5,309.5C 182.563,314.203 182.229,318.87 181.5,323.5C 180.076,325.515 179.41,327.848 179.5,330.5C 177.115,333.653 175.782,337.32 175.5,341.5C 168.833,341.5 162.167,341.5 155.5,341.5C 153.093,340.206 150.926,338.539 149,336.5C 148.066,329.673 148.566,323.006 150.5,316.5C 152.245,314.967 153.245,312.967 153.5,310.5C 155.139,308.194 157.139,306.194 159.5,304.5C 164.676,302.816 170.009,302.15 175.5,302.5 Z"/></g>
<g><path style="opacity:1" fill="#505c6d" d="M 175.5,302.5 C 170.009,302.15 164.676,302.816 159.5,304.5C 160.347,303.034 161.68,302.2 163.5,302C 167.689,301.188 171.689,301.355 175.5,302.5 Z"/></g>
<g><path style="opacity:1" fill="#7d8592" d="M 153.5,310.5 C 153.245,312.967 152.245,314.967 150.5,316.5C 150.755,314.033 151.755,312.033 153.5,310.5 Z"/></g>
<g><path style="opacity:1" fill="#848c98" d="M 248.5,306.5 C 248.829,309.228 248.163,311.562 246.5,313.5C 246.171,310.772 246.837,308.438 248.5,306.5 Z"/></g>
<g><path style="opacity:1" fill="#99a2b0" d="M 320.5,308.5 C 321.966,309.347 322.8,310.68 323,312.5C 323.841,318.091 323.341,323.424 321.5,328.5C 321.756,321.776 321.423,315.109 320.5,308.5 Z"/></g>
<g><path style="opacity:1" fill="#b1b7c0" d="M 383.5,310.5 C 384.451,311.919 384.784,313.585 384.5,315.5C 380.5,315.5 376.5,315.5 372.5,315.5C 375.962,314.518 379.629,314.185 383.5,314.5C 383.5,313.167 383.5,311.833 383.5,310.5 Z"/></g>
<g><path style="opacity:1" fill="#183156" d="M 301.5,314.5 C 303.85,316.213 304.85,318.547 304.5,321.5C 297.978,321.823 291.645,321.49 285.5,320.5C 286.359,317.548 288.359,315.715 291.5,315C 294.817,314.502 298.15,314.335 301.5,314.5 Z"/></g>
<g><path style="opacity:1" fill="#232f5b" d="M 372.5,315.5 C 376.5,315.5 380.5,315.5 384.5,315.5C 384.611,316.117 384.944,316.617 385.5,317C 372.993,317.827 360.66,317.66 348.5,316.5C 356.316,315.508 364.316,315.174 372.5,315.5 Z"/></g>
<g><path style="opacity:1" fill="#f6f6f7" d="M 123.5,318.5 C 122.841,321.455 122.508,324.455 122.5,327.5C 120,339.454 117.166,351.454 114,363.5C 112.129,368.081 109.629,372.248 106.5,376C 104.091,377.707 101.425,378.54 98.5,378.5C 93.1667,378.5 87.8333,378.5 82.5,378.5C 82.5,376.833 82.5,375.167 82.5,373.5C 82.5481,370.687 83.2147,368.021 84.5,365.5C 91.2655,365.902 95.7655,362.902 98,356.5C 100.559,344.15 103.225,331.817 106,319.5C 106.5,319 107,318.5 107.5,318C 113.016,317.183 118.35,317.349 123.5,318.5 Z"/></g>
<g><path style="opacity:1" fill="#acb3bb" d="M 182.5,309.5 C 183.162,311.304 183.495,313.304 183.5,315.5C 183.713,318.527 183.047,321.193 181.5,323.5C 182.229,318.87 182.563,314.203 182.5,309.5 Z"/></g>
<g><path style="opacity:1" fill="#6a788c" d="M 301.5,314.5 C 303.017,314.511 304.184,315.177 305,316.5C 305.495,318.473 305.662,320.473 305.5,322.5C 298.468,322.83 291.468,322.497 284.5,321.5C 284.624,320.893 284.957,320.56 285.5,320.5C 291.645,321.49 297.978,321.823 304.5,321.5C 304.85,318.547 303.85,316.213 301.5,314.5 Z"/></g>
<g><path style="opacity:1" fill="#838c97" d="M 123.5,318.5 C 124.815,321.627 124.482,324.627 122.5,327.5C 122.508,324.455 122.841,321.455 123.5,318.5 Z"/></g>
<g><path style="opacity:1" fill="#909bab" d="M 329.5,327.5 C 329.59,330.152 328.924,332.485 327.5,334.5C 327.171,331.772 327.837,329.438 329.5,327.5 Z"/></g>
<g><path style="opacity:1" fill="#6e7b8c" d="M 319.5,334.5 C 307.345,335.495 295.011,335.829 282.5,335.5C 282.5,336.833 282.5,338.167 282.5,339.5C 281.549,338.081 281.216,336.415 281.5,334.5C 294.167,334.5 306.833,334.5 319.5,334.5 Z"/></g>
<g><path style="opacity:1" fill="#b5bcc5" d="M 265.5,330.5 C 265.5,336.167 265.5,341.833 265.5,347.5C 262.897,341.849 262.897,336.182 265.5,330.5 Z"/></g>
<g><path style="opacity:1" fill="#828e9e" d="M 327.5,334.5 C 327.324,337.727 326.657,340.727 325.5,343.5C 325.215,340.171 325.882,337.171 327.5,334.5 Z"/></g>
<g><path style="opacity:1" fill="#8e959f" d="M 207.5,329.5 C 206.328,335.845 206.328,342.178 207.5,348.5C 206.778,348.082 206.278,347.416 206,346.5C 205.833,344.167 205.667,341.833 205.5,339.5C 205.315,335.859 205.981,332.526 207.5,329.5 Z"/></g>
<g><path style="opacity:1" fill="#a7adb5" d="M 179.5,330.5 C 178.905,334.615 177.905,338.615 176.5,342.5C 169.313,342.825 162.313,342.491 155.5,341.5C 162.167,341.5 168.833,341.5 175.5,341.5C 175.782,337.32 177.115,333.653 179.5,330.5 Z"/></g>
<g><path style="opacity:1" fill="#939daa" d="M 325.5,343.5 C 325.829,346.228 325.163,348.562 323.5,350.5C 323.721,347.933 324.388,345.599 325.5,343.5 Z"/></g>
<g><path style="opacity:1" fill="#bbc2cb" d="M 272.5,354.5 C 280.216,356.051 288.049,356.718 296,356.5C 302.407,356.457 308.574,355.79 314.5,354.5C 314.5,355.5 314.5,356.5 314.5,357.5C 301.829,357.667 289.162,357.5 276.5,357C 274.68,356.8 273.347,355.966 272.5,354.5 Z"/></g>
<g><path style="opacity:1" fill="#8b96a3" d="M 323.5,352.5 C 323.5,353.833 323.5,355.167 323.5,356.5C 328.5,356.5 333.5,356.5 338.5,356.5C 333.36,357.488 328.026,357.821 322.5,357.5C 322.216,355.585 322.549,353.919 323.5,352.5 Z"/></g>
<g><path style="opacity:1" fill="#a6aeb7" d="M 82.5,373.5 C 82.5,375.167 82.5,376.833 82.5,378.5C 87.8333,378.5 93.1667,378.5 98.5,378.5C 93.0247,379.489 87.358,379.822 81.5,379.5C 81.2053,377.265 81.5386,375.265 82.5,373.5 Z"/></g>
</svg>
