<?xml version="1.0" encoding="UTF-8"?>
<svg version="1.1" xmlns="http://www.w3.org/2000/svg" width="100" height="100">
<path d="M0 0 C11.42064645 -0.90295009 11.42064645 -0.90295009 14.90625 1.08984375 C20.28046628 7.26691551 20.38274114 15.07753197 20.2578125 22.83203125 C19.80264122 28.42512076 18.39410819 33.24602115 14 37 C10.4937557 38.1687481 7.3522134 38.12514267 3.70703125 38.09765625 C2.64798836 38.09553383 2.64798836 38.09553383 1.56755066 38.09336853 C-0.68417626 38.08777764 -2.93580321 38.07522688 -5.1875 38.0625 C-6.71549335 38.05748382 -8.24348827 38.05292112 -9.77148438 38.04882812 C-13.51436135 38.0378112 -17.25716373 38.02055287 -21 38 C-21 38.99 -21 39.98 -21 41 C-15.06 41 -9.12 41 -3 41 C-2.50523698 54.35860146 -2.50523698 54.35860146 -4.83203125 57.375 C-11.17978282 62.13295433 -19.42258483 61.62031736 -27 61 C-30.53279588 60.17407332 -33.12002659 58.93405362 -35.65258789 56.24584961 C-38.28960091 51.85050937 -37.46863112 46.55196921 -37.4375 41.5625 C-37.45748047 40.43005859 -37.47746094 39.29761719 -37.49804688 38.13085938 C-37.49315859 29.83543292 -37.49315859 29.83543292 -35.09765625 25.77734375 C-32.12847539 23.26155736 -30.48144138 22.87444213 -26.67578125 22.7890625 C-25.37930664 22.74652344 -25.37930664 22.74652344 -24.05664062 22.703125 C-22.24693669 22.65160318 -20.43701506 22.60717194 -18.62695312 22.5703125 C-12.23808474 22.34332088 -7.04682402 21.73900057 -2.10546875 17.296875 C-0.53173591 14.02706966 -0.43038556 10.81351217 -0.3125 7.25 C-0.27833984 6.55261719 -0.24417969 5.85523438 -0.20898438 5.13671875 C-0.12691705 3.42502892 -0.06177081 1.7125424 0 0 Z M-12 47 C-12.33 48.32 -12.66 49.64 -13 51 C-12.01 51.33 -11.02 51.66 -10 52 C-9.34 50.68 -8.68 49.36 -8 48 C-9.32 47.67 -10.64 47.34 -12 47 Z " fill="#FFC106" transform="translate(69,29)"/>
<path d="M0 0 C4.46379508 4.73812493 3.47589038 10.28456928 3.4375 16.4375 C3.4674707 18.13616211 3.4674707 18.13616211 3.49804688 19.86914062 C3.49315859 28.16456708 3.49315859 28.16456708 1.09765625 32.22265625 C-1.87152461 34.73844264 -3.51855862 35.12555787 -7.32421875 35.2109375 C-8.18853516 35.23929688 -9.05285156 35.26765625 -9.94335938 35.296875 C-11.75306331 35.34839682 -13.56298494 35.39282806 -15.37304688 35.4296875 C-20.94816664 35.62776725 -25.13796937 36.16641604 -30 39 C-33.25496716 42.83213659 -33.45743988 46.38921348 -33.6875 51.3125 C-33.75324219 52.56675781 -33.81898437 53.82101563 -33.88671875 55.11328125 C-33.92410156 56.06589844 -33.96148437 57.01851562 -34 58 C-45.37458365 58.89930822 -45.37458365 58.89930822 -48.90625 56.9453125 C-54.04778636 51.14540867 -54.41979493 43.10675596 -54.24609375 35.75 C-53.87411132 31.59324391 -53.24608525 27.56689639 -51 24 C-46.43527698 20.30062936 -42.92589706 19.43812825 -37.1953125 19.609375 C-36.4713327 19.61503479 -35.74735291 19.62069458 -35.00143433 19.62652588 C-32.70859212 19.64876333 -30.41736284 19.69893013 -28.125 19.75 C-26.56252271 19.77008159 -25.00002071 19.78832945 -23.4375 19.8046875 C-19.6243867 19.84858584 -15.81246598 19.91752029 -12 20 C-12 19.01 -12 18.02 -12 17 C-18.27 17 -24.54 17 -31 17 C-31.49476302 3.64139854 -31.49476302 3.64139854 -29.16796875 0.625 C-21.40343501 -5.19490277 -8.09112082 -4.92503006 0 0 Z M-24 6 C-24.66 7.32 -25.32 8.64 -26 10 C-23.525 10.495 -23.525 10.495 -21 11 C-21.33 9.35 -21.66 7.7 -22 6 C-22.66 6 -23.32 6 -24 6 Z " fill="#0176BC" transform="translate(63,13)"/>
</svg>
