<?xml version="1.0" encoding="UTF-8"?>
<svg version="1.1" xmlns="http://www.w3.org/2000/svg" width="100" height="100">
<path d="M0 0 C2.3125 -0.3125 2.3125 -0.3125 5 0 C6.81883009 2.3832946 8 3.95818337 8 7 C8.99 6.67 9.98 6.34 11 6 C12.99820728 5.90564021 14.99957203 5.87009699 17 5.875 C18.051875 5.87242187 19.10375 5.86984375 20.1875 5.8671875 C23 6 23 6 26 7 C26.309375 6.21625 26.61875 5.4325 26.9375 4.625 C28 2 28 2 29 0 C30.65 0 32.3 0 34 0 C33.5020163 3.73487777 33.12508244 5.81237635 31 9 C31.81404297 9.74443359 31.81404297 9.74443359 32.64453125 10.50390625 C37.11465355 14.74850887 40.1447564 18.08641102 42 24 C42 24.99 42 25.98 42 27 C42.74765625 26.95359375 43.4953125 26.9071875 44.265625 26.859375 C45.74289063 26.80523438 45.74289063 26.80523438 47.25 26.75 C48.22453125 26.70359375 49.1990625 26.6571875 50.203125 26.609375 C53.82628793 27.11540334 54.75244184 28.15661811 57 31 C57.50793457 33.76989746 57.50793457 33.76989746 57.51757812 36.99023438 C57.53018677 38.19828735 57.54279541 39.40634033 57.55578613 40.65100098 C57.54768921 41.95210815 57.53959229 43.25321533 57.53125 44.59375 C57.53394584 45.94608845 57.53782903 47.29842501 57.54284668 48.65075684 C57.54873759 51.48204034 57.54019293 54.31281833 57.52148438 57.14404297 C57.49869382 60.76926663 57.51181927 64.3933058 57.53577423 68.01848602 C57.55024396 70.81012868 57.54562111 73.60149152 57.53526306 76.3931427 C57.53130545 78.37843598 57.54343166 80.36374024 57.55578613 82.34899902 C57.54317749 83.557052 57.53056885 84.76510498 57.51757812 86.00976562 C57.51439575 87.07247681 57.51121338 88.13518799 57.50793457 89.23010254 C56.87019913 92.70783742 55.81040222 93.90532414 53 96 C49.25 96.25 49.25 96.25 46 96 C46 92.04 46 88.08 46 84 C42.7 84 39.4 84 36 84 C36.495 85.051875 36.495 85.051875 37 86.125 C38.09758996 89.28057113 38.22620981 91.68225608 38 95 C37 96 37 96 34.25 96.5625 C31 96 31 96 29.52734375 94.35546875 C27.30875684 90.86911789 26.01304939 88.05219756 25 84 C19.72 84 14.44 84 9 84 C8.34 85.98 7.68 87.96 7 90 C5.25 93.375 5.25 93.375 3 96 C-0.1875 96.4375 -0.1875 96.4375 -3 96 C-4 95 -4 95 -4.1875 92.25 C-4.00055372 89.00959785 -3.26785106 86.94662618 -2 84 C-3.09699219 84.05800781 -4.19398437 84.11601563 -5.32421875 84.17578125 C-6.77860314 84.22269688 -8.23303374 84.26819511 -9.6875 84.3125 C-10.40873047 84.35439453 -11.12996094 84.39628906 -11.87304688 84.43945312 C-12.93168945 84.46362305 -12.93168945 84.46362305 -14.01171875 84.48828125 C-14.65584717 84.51446533 -15.29997559 84.54064941 -15.96362305 84.56762695 C-18.46219419 83.87116635 -20.21985569 82.86711284 -21.98268127 80.9506073 C-24.44771881 76.22414342 -23.70401777 70.31497101 -23.6640625 65.125 C-23.66743364 63.75406464 -23.67228875 62.3831322 -23.67855835 61.01220703 C-23.68591594 58.14391526 -23.6752621 55.27640391 -23.65185547 52.40820312 C-23.62336599 48.73916507 -23.63977628 45.07195564 -23.66971779 41.40298462 C-23.68782233 38.57350998 -23.68201881 35.74446594 -23.66907883 32.91497803 C-23.66414122 30.90701097 -23.67927464 28.8990269 -23.69473267 26.89111328 C-23.56447073 16.76847067 -23.56447073 16.76847067 -20.74438477 13.67260742 C-17.99260597 11.99549359 -16.60333258 11.37579263 -13.42578125 11.36328125 C-12.17764648 11.33331055 -12.17764648 11.33331055 -10.90429688 11.30273438 C-10.04900391 11.30595703 -9.19371094 11.30917969 -8.3125 11.3125 C-6.60016168 11.29594952 -4.88787556 11.27159048 -3.17578125 11.23828125 C-2.04523315 11.2388855 -2.04523315 11.2388855 -0.8918457 11.23950195 C1.24293609 11.16552985 1.24293609 11.16552985 3 9 C2.505 8.2575 2.01 7.515 1.5 6.75 C0 4 0 4 0 0 Z " fill="#4389FD" transform="translate(33,2)"/>
<path d="M0 0 C2.3125 -0.3125 2.3125 -0.3125 5 0 C6.81883009 2.3832946 8 3.95818337 8 7 C8.99 6.67 9.98 6.34 11 6 C12.99820728 5.90564021 14.99957203 5.87009699 17 5.875 C18.051875 5.87242187 19.10375 5.86984375 20.1875 5.8671875 C23 6 23 6 26 7 C26.309375 6.21625 26.61875 5.4325 26.9375 4.625 C28 2 28 2 29 0 C30.65 0 32.3 0 34 0 C33.5020163 3.73487777 33.12508244 5.81237635 31 9 C31.81404297 9.74443359 31.81404297 9.74443359 32.64453125 10.50390625 C37.11465355 14.74850887 40.1447564 18.08641102 42 24 C42 24.99 42 25.98 42 27 C34.26351895 27.11598804 26.52712835 27.20476267 18.78997517 27.25906086 C15.1969914 27.28512544 11.60460364 27.32046329 8.01196289 27.37719727 C4.54301814 27.43163335 1.07464561 27.46144416 -2.39469337 27.47438622 C-4.35851051 27.48808449 -6.32209825 27.52710018 -8.28556824 27.56648254 C-18.22276804 27.56960765 -18.22276804 27.56960765 -21.34692383 24.69604492 C-23 22 -23 22 -23.0625 18.375 C-21.8483616 14.51832509 -21.51084755 13.83386336 -18 12 C-14.79707607 11.54324699 -11.60679033 11.48814746 -8.375 11.4375 C-6.65345288 11.40311999 -4.93204394 11.36054665 -3.2109375 11.30859375 C-2.45087402 11.29626709 -1.69081055 11.28394043 -0.90771484 11.27124023 C1.23962331 11.16073019 1.23962331 11.16073019 3 9 C2.505 8.2575 2.01 7.515 1.5 6.75 C0 4 0 4 0 0 Z " fill="#07E679" transform="translate(33,2)"/>
<path d="M0 0 C1.32 0 2.64 0 4 0 C4.061875 0.9075 4.12375 1.815 4.1875 2.75 C4.67775565 6.18369917 4.67775565 6.18369917 7.5625 7.875 C10 10 10 10 10.3984375 11.8828125 C10.49715213 17.23314547 10.49715213 17.23314547 8.84521484 19.78125 C7.73214716 22.0391643 7.73214716 22.0391643 8.73510742 24.59375 C9.18732666 25.5528125 9.6395459 26.511875 10.10546875 27.5 C10.59466797 28.551875 11.08386719 29.60375 11.58789062 30.6875 C12.11576172 31.780625 12.64363281 32.87375 13.1875 34 C13.69603516 35.093125 14.20457031 36.18625 14.72851562 37.3125 C16.87727903 41.87268449 18.96057394 45.97705383 22 50 C22.546875 52.32421875 22.546875 52.32421875 22.75 54.6875 C22.82734375 55.47511719 22.9046875 56.26273438 22.984375 57.07421875 C22.99210937 58.02748047 22.99210937 58.02748047 23 59 C22 60 22 60 19.25 60.5625 C16 60 16 60 14.52734375 58.35546875 C12.30875684 54.86911789 11.01304939 52.05219756 10 48 C4.72 48 -0.56 48 -6 48 C-6.66 49.98 -7.32 51.96 -8 54 C-9.75 57.375 -9.75 57.375 -12 60 C-15.1875 60.4375 -15.1875 60.4375 -18 60 C-19 59 -19 59 -19.25 56.3125 C-18.95882508 52.45443228 -17.80242538 50.41769147 -16 47 C-15.36317371 45.74486176 -14.7291845 44.48828106 -14.09765625 43.23046875 C-13.76620605 42.57336914 -13.43475586 41.91626953 -13.09326172 41.23925781 C-11.6964673 38.45890247 -10.31406346 35.67153917 -8.93505859 32.88232422 C-8.14021504 31.28226056 -7.33135436 29.68917227 -6.51953125 28.09765625 C-5.23313678 25.56032355 -5.23313678 25.56032355 -4 22 C-4.87284298 19.98337385 -4.87284298 19.98337385 -6 18 C-6.45797549 15.27344826 -6.46935663 12.72673854 -6 10 C-4.125 7.5 -4.125 7.5 -2 6 C-1.34 6 -0.68 6 0 6 C0 4.02 0 2.04 0 0 Z " fill="#374852" transform="translate(48,38)"/>
<path d="M0 0 C0.33 0 0.66 0 1 0 C1.10132712 7.90190696 1.17143514 15.80364672 1.21972656 23.70605469 C1.237599 26.39504466 1.26544475 29.08365826 1.30175781 31.77246094 C1.35021615 35.63487561 1.37295626 39.49671208 1.390625 43.359375 C1.41127014 44.5636615 1.43191528 45.767948 1.45318604 47.00872803 C1.45348816 48.12958801 1.45379028 49.250448 1.45410156 50.40527344 C1.46298401 51.39122498 1.47186646 52.37717651 1.48101807 53.39300537 C1 56 1 56 -0.59088135 58.34967041 C-3 60 -3 60 -10 60 C-10 42.18 -10 24.36 -10 6 C-7.03 5.34 -4.06 4.68 -1 4 C-0.67 2.68 -0.34 1.36 0 0 Z " fill="#374955" transform="translate(89,38)"/>
<path d="M0 0 C1.26070312 0.02030273 1.26070312 0.02030273 2.546875 0.04101562 C4.61485938 0.07626536 6.68251271 0.1300698 8.75 0.1875 C7.19763717 3.36183834 5.47424857 6.3812005 3.65234375 9.40625 C2.68740432 11.3110655 2.19306979 13.10461521 1.75 15.1875 C-8.03487466 15.95863723 -8.03487466 15.95863723 -12.5 13.125 C-14.25 10.1875 -14.25 10.1875 -14.3125 6.5625 C-13.25 3.1875 -13.25 3.1875 -11.76171875 1.48828125 C-7.91825073 -0.50219286 -4.25614955 -0.12967956 0 0 Z " fill="#364950" transform="translate(24.25,13.8125)"/>
<path d="M0 0 C2.38671875 0.12890625 2.38671875 0.12890625 5 1 C6.58203125 3.21484375 6.58203125 3.21484375 7.8125 5.9375 C8.23144531 6.83339844 8.65039062 7.72929688 9.08203125 8.65234375 C10 11 10 11 10 13 C4.72 13 -0.56 13 -6 13 C-2.5 2.5 -2.5 2.5 0 0 Z " fill="#4388FA" transform="translate(48,73)"/>
<path d="M0 0 C2.625 0.375 2.625 0.375 5 1 C5.625 3.375 5.625 3.375 6 6 C5.34 6.66 4.68 7.32 4 8 C1.375 7.625 1.375 7.625 -1 7 C-1.625 4.625 -1.625 4.625 -2 2 C-1.34 1.34 -0.68 0.68 0 0 Z " fill="#4388FA" transform="translate(48,48)"/>
</svg>
