<?xml version="1.0" encoding="UTF-8"?>
<svg version="1.1" xmlns="http://www.w3.org/2000/svg" width="100" height="100">
<path d="M0 0 C1.95898438 1.13574219 1.95898438 1.13574219 3.59375 2.796875 C6.53019217 5.63411305 9.53078365 8.24248661 12.7437439 10.76498413 C33.88181646 27.62196595 33.88181646 27.62196595 35.5133667 40.05126953 C36.2131443 49.43922857 35.26086042 58.69980732 34 68 C29.05 68 24.1 68 19 68 C19 71.96 19 75.92 19 80 C7.63766886 82.12601887 -6.79420541 84.66438924 -17.33789062 78.67108154 C-22.99936858 74.68907718 -27.83095019 69.90230249 -32.5625 64.875 C-33.23942902 64.15915741 -33.91635803 63.44331482 -34.61380005 62.70578003 C-46.9164334 49.45746971 -46.9164334 49.45746971 -47 43 C-46.35083008 40.62573242 -46.35083008 40.62573242 -45.26953125 38.35546875 C-44.87830078 37.51306641 -44.48707031 36.67066406 -44.08398438 35.80273438 C-43.66439453 34.93970703 -43.24480469 34.07667969 -42.8125 33.1875 C-42.00638286 31.47271621 -41.20039249 29.75787282 -40.39453125 28.04296875 C-39.97985596 27.20096924 -39.56518066 26.35896973 -39.13793945 25.49145508 C-37.9613192 23.05991887 -37.9613192 23.05991887 -37.27416992 20.6237793 C-35.03684285 13.73387066 -30.6695809 11.45537497 -24.39257812 8.23242188 C-23.78357666 7.93779053 -23.1745752 7.64315918 -22.54711914 7.33959961 C-20.68622881 6.43688335 -18.85243759 5.49145213 -17.01757812 4.53710938 C-6.60537344 -0.68893972 -6.60537344 -0.68893972 0 0 Z " fill="#1566C0" transform="translate(54,10)"/>
<path d="M0 0 C8.80342415 7.36202509 16.98035018 15.39762157 25.17673397 23.42104435 C27.81977895 26.00735316 30.4739445 28.57949321 33.15844727 31.12280273 C35.77632889 33.60365659 38.36028103 36.11567385 40.92437935 38.65203667 C42.36762487 40.06369718 43.8428508 41.44242546 45.31858826 42.82008362 C50.31705597 47.8313317 52.57741476 50.94908593 52.59985352 58.18139648 C52.44794028 60.12528355 52.2649098 62.06826571 52 64 C20.82774732 66.94933977 20.82774732 66.94933977 11.9921875 60.3203125 C6.90727137 55.57271106 0.31500858 49.32069118 -0.12025452 41.96882629 C-0.11803391 41.19383286 -0.11581329 40.41883942 -0.11352539 39.62036133 C-0.11344986 38.73967484 -0.11337433 37.85898834 -0.11329651 36.95161438 C-0.10813522 36.00465195 -0.10297394 35.05768951 -0.09765625 34.08203125 C-0.0962413 33.10965012 -0.09482635 32.13726898 -0.09336853 31.13542175 C-0.08776817 28.02774996 -0.07521562 24.92015004 -0.0625 21.8125 C-0.05748505 19.70638125 -0.05292213 17.60026137 -0.04882812 15.49414062 C-0.03779862 10.32939936 -0.02053375 5.16471187 0 0 Z " fill="#41A4F4" transform="translate(21,26)"/>
<path d="M0 0 C15.18 0 30.36 0 46 0 C46 4.29 46 8.58 46 13 C41.37816915 13.3003189 36.76217989 13.51594431 32.1328125 13.65917969 C30.5647482 13.71894607 28.99733579 13.80041011 27.43164062 13.90527344 C13.75724451 14.79708188 13.75724451 14.79708188 8.21289062 10.31054688 C5.14805776 7.4404864 2.50079818 4.36979199 0 1 C0 0.67 0 0.34 0 0 Z " fill="#84CAF7" transform="translate(27,77)"/>
<path d="M0 0 C2.15234375 1.25 2.15234375 1.25 3.9375 3 C4.59621094 3.63035156 5.25492188 4.26070312 5.93359375 4.91015625 C6.95646484 5.94462891 6.95646484 5.94462891 8 7 C8.75410156 7.74121094 9.50820313 8.48242188 10.28515625 9.24609375 C12.20737835 11.14797487 14.11070855 13.06548615 16 15 C13.07972881 15.97342373 11.37082553 16.09473842 8.3449707 16.02172852 C6.93384758 15.99158409 6.93384758 15.99158409 5.49421692 15.96083069 C3.97534126 15.92027809 3.97534126 15.92027809 2.42578125 15.87890625 C1.38681198 15.85529526 0.34784271 15.83168427 -0.72261047 15.80735779 C-4.04437933 15.73072211 -7.36591502 15.64669703 -10.6875 15.5625 C-12.93813959 15.50927924 -15.1887906 15.45653884 -17.43945312 15.40429688 C-22.95978001 15.27510707 -28.4799334 15.13984824 -34 15 C-29.20068108 11.33575992 -24.01420948 8.63721977 -18.6875 5.8125 C-17.66720703 5.25369141 -16.64691406 4.69488281 -15.59570312 4.11914062 C-5.81052368 -1.0612485 -5.81052368 -1.0612485 0 0 Z " fill="#41A5F4" transform="translate(54,10)"/>
</svg>
