<?xml version="1.0" encoding="UTF-8"?>
<svg version="1.1" xmlns="http://www.w3.org/2000/svg" width="100" height="100">
<path d="M0 0 C25.08 0 50.16 0 76 0 C69.25 7.875 69.25 7.875 66.56494141 10.54858398 C65.66468735 11.44872475 65.66468735 11.44872475 64.74624634 12.36705017 C64.12100067 12.98713455 63.495755 13.60721893 62.8515625 14.24609375 C62.19417084 14.90207047 61.53677917 15.55804718 60.85946655 16.23390198 C58.78367138 18.30415268 56.70440573 20.37087651 54.625 22.4375 C53.2067992 23.85067862 51.78882824 25.26408794 50.37109375 26.67773438 C46.91671223 30.12116065 43.4592163 33.56143099 40 37 C41.37518712 40.09134486 42.94618465 42.18724201 45.34814453 44.55932617 C46.02869904 45.23650192 46.70925354 45.91367767 47.41043091 46.6113739 C48.14381683 47.3313002 48.87720276 48.0512265 49.6328125 48.79296875 C50.38464813 49.53960281 51.13648376 50.28623688 51.91110229 51.05549622 C54.31103865 53.43762584 56.71755973 55.81295613 59.125 58.1875 C61.53869003 60.57362555 63.95092956 62.96117268 66.36032104 65.35163879 C67.85998702 66.83898964 69.3623165 68.32366034 70.86746216 69.8054657 C71.54171234 70.47318497 72.21596252 71.14090424 72.91064453 71.82885742 C73.50861847 72.41857834 74.10659241 73.00829926 74.72268677 73.6158905 C76 75 76 75 76 76 C50.92 76 25.84 76 0 76 C0 50.92 0 25.84 0 0 Z " fill="#D2638D" transform="translate(12,12)"/>
<path d="M0 0 C5.05693059 4.23723978 9.80841147 8.66091625 14.46484375 13.33203125 C15.48210289 14.3478553 15.48210289 14.3478553 16.51991272 15.38420105 C17.93873833 16.80235102 19.35632147 18.22174506 20.77270508 19.64233398 C22.95214752 21.82718386 25.13694282 24.00658031 27.32226562 26.18554688 C28.7034462 27.56738736 30.08431702 28.94953754 31.46484375 30.33203125 C32.44903542 31.31318657 32.44903542 31.31318657 33.45310974 32.31416321 C38 36.88501892 38 36.88501892 38 38 C13.25 38 -11.5 38 -37 38 C-35.34146593 34.68293187 -34.3789509 33.12962237 -31.88305664 30.64013672 C-30.93681175 29.68927689 -30.93681175 29.68927689 -29.97145081 28.71920776 C-28.95111 27.70964523 -28.95111 27.70964523 -27.91015625 26.6796875 C-26.85966347 25.62988205 -26.85966347 25.62988205 -25.78794861 24.55886841 C-24.30834463 23.08228191 -22.82631457 21.60812301 -21.34204102 20.13623047 C-19.06925306 17.88169882 -16.80456896 15.61926799 -14.54101562 13.35546875 C-13.10203355 11.92140218 -11.66259569 10.48779278 -10.22265625 9.0546875 C-9.54445328 8.37759735 -8.86625031 7.7005072 -8.16749573 7.00289917 C-7.53351364 6.37529694 -6.89953156 5.7476947 -6.24633789 5.10107422 C-5.69055557 4.5491037 -5.13477325 3.99713318 -4.56214905 3.42843628 C-3 2 -3 2 0 0 Z " fill="#7F6EE2" transform="translate(50,50)"/>
<path d="M0 0 C0.83920486 0.00424484 1.67840973 0.00848969 2.54304504 0.01286316 C5.2230337 0.02965411 7.90226995 0.06730645 10.58203125 0.10546875 C12.39907768 0.12051508 14.2161359 0.13420357 16.03320312 0.14648438 C20.48726901 0.17955893 24.94077257 0.23134362 29.39453125 0.29296875 C25.55892492 4.87961219 21.58814569 9.23951431 17.33984375 13.4453125 C16.52022659 14.26280724 16.52022659 14.26280724 15.68405151 15.09681702 C13.96491067 16.81042993 12.24229921 18.52050319 10.51953125 20.23046875 C9.34221487 21.40276079 8.16512951 22.57528489 6.98828125 23.74804688 C4.12635636 26.59903857 1.26131668 29.4468649 -1.60546875 32.29296875 C-16.6604848 19.40232703 -16.6604848 19.40232703 -20.60546875 15.29296875 C-19.18944662 12.1439046 -17.46811793 9.79773203 -15.16796875 7.23046875 C-14.57113281 6.55886719 -13.97429688 5.88726562 -13.359375 5.1953125 C-12.49119141 4.25365234 -12.49119141 4.25365234 -11.60546875 3.29296875 C-10.92716255 2.50215157 -10.92716255 2.50215157 -10.2351532 1.69535828 C-7.37362034 -0.76707162 -3.59895929 -0.06831484 0 0 Z " fill="#EB7D36" transform="translate(58.60546875,11.70703125)"/>
<path d="M0 0 C12.54 0 25.08 0 38 0 C30.4573004 8.79981619 22.79264501 17.41691075 14.4609375 25.4765625 C12.89937709 26.95433324 12.89937709 26.95433324 12 29 C11.34 29 10.68 29 10 29 C9.61521484 29.87398437 9.61521484 29.87398437 9.22265625 30.765625 C7.89214174 33.19710839 6.41556987 34.81735553 4.4375 36.75 C3.50744141 37.67039062 3.50744141 37.67039062 2.55859375 38.609375 C1 40 1 40 0 40 C0 26.8 0 13.6 0 0 Z " fill="#2B87D9" transform="translate(12,12)"/>
<path d="M0 0 C6.510703 5.47490934 12.74987827 11.23223578 19 17 C17.44997253 20.88397689 14.99523379 23.02979619 11.875 25.75 C10.96492188 26.54921875 10.05484375 27.3484375 9.1171875 28.171875 C8.06917969 29.07679687 8.06917969 29.07679687 7 30 C3.94839391 28.62736637 1.75173068 27.04043427 -0.671875 24.7421875 C-1.33574219 24.11699219 -1.99960937 23.49179687 -2.68359375 22.84765625 C-3.36550781 22.19667969 -4.04742187 21.54570313 -4.75 20.875 C-5.79607422 19.88693359 -5.79607422 19.88693359 -6.86328125 18.87890625 C-8.57950489 17.25672226 -10.29153435 15.63034621 -12 14 C-10.21799313 10.14972009 -7.92324595 7.7200858 -4.875 4.75 C-3.96492188 3.85796875 -3.05484375 2.9659375 -2.1171875 2.046875 C-1.41851562 1.37140625 -0.71984375 0.6959375 0 0 Z " fill="#DF7062" transform="translate(37,26)"/>
<path d="M0 0 C3.33234574 1.45241736 5.54225606 3.2850086 8.109375 5.84375 C9.24052734 6.97103516 9.24052734 6.97103516 10.39453125 8.12109375 C11.17183594 8.90613281 11.94914062 9.69117187 12.75 10.5 C13.54277344 11.28503906 14.33554687 12.07007812 15.15234375 12.87890625 C16.27576172 14.00619141 16.27576172 14.00619141 17.421875 15.15625 C18.10862305 15.84525391 18.79537109 16.53425781 19.50292969 17.24414062 C21 19 21 19 21 21 C7.8 21 -5.4 21 -19 21 C-17.19522505 17.3904501 -15.88074534 15.64371929 -13.0859375 12.890625 C-12.32539063 12.13652344 -11.56484375 11.38242188 -10.78125 10.60546875 C-9.9871875 9.82816406 -9.193125 9.05085938 -8.375 8.25 C-7.57320312 7.45722656 -6.77140625 6.66445312 -5.9453125 5.84765625 C-3.96797154 3.89385507 -1.98611091 1.94487897 0 0 Z " fill="#2B88D7" transform="translate(32,67)"/>
<path d="M0 0 C3.78490193 0.17280191 5.61948256 2.38665437 8.08384705 5.05175781 C8.59113846 5.61217773 9.09842987 6.17259766 9.62109375 6.75 C10.7322985 7.92842911 11.84497836 9.10546866 12.95898438 10.28125 C14.69838304 12.13139323 16.42675915 13.98813009 18.13061523 15.87109375 C26.11030181 24.93214335 26.11030181 24.93214335 37.34765625 28.3125 C40.48448804 28.28418732 40.48448804 28.28418732 43 28 C43 28.33 43 28.66 43 29 C38.85597333 29.19906641 34.71453512 29.3435041 30.56713867 29.43945312 C29.15941869 29.47947543 27.75202695 29.53391768 26.34545898 29.60351562 C14.69403849 30.16522891 14.69403849 30.16522891 10.71704102 27.4296875 C8.94595701 25.37986985 7.48926633 23.26030137 6 21 C4.85518301 19.7622904 3.67929041 18.55252495 2.47265625 17.375 C1.62670898 16.53388672 1.62670898 16.53388672 0.76367188 15.67578125 C0.20228516 15.12277344 -0.35910156 14.56976563 -0.9375 14 C-1.52595703 13.41605469 -2.11441406 12.83210938 -2.72070312 12.23046875 C-4.14479793 10.81795195 -5.5720525 9.4086219 -7 8 C-6.02133662 6.85373678 -5.04205413 5.70800212 -4.0625 4.5625 C-3.51722656 3.92441406 -2.97195312 3.28632812 -2.41015625 2.62890625 C-1.63204305 1.73008851 -0.84063472 0.84063472 0 0 Z " fill="#537BDD" transform="translate(40,59)"/>
<path d="M0 0 C-3.85221677 4.51834511 -7.72240832 9.01767053 -11.6875 13.4375 C-12.15994141 13.97826172 -12.63238281 14.51902344 -13.11914062 15.07617188 C-14.35082456 16.44259823 -15.67030325 17.72875146 -17 19 C-20.58329695 19 -20.9728564 18.44501518 -23.50390625 16.078125 C-24.16197266 15.46453125 -24.82003906 14.8509375 -25.49804688 14.21875 C-26.17931641 13.5690625 -26.86058594 12.919375 -27.5625 12.25 C-28.59020508 11.29867188 -28.59020508 11.29867188 -29.63867188 10.328125 C-32.7780912 7.37047775 -35.23480894 4.9901071 -37 1 C-24.69229775 -0.34615493 -12.36247682 -0.09824685 0 0 Z " fill="#557ADD" transform="translate(50,12)"/>
<path d="M0 0 C12.54 0 25.08 0 38 0 C31.25 7.875 31.25 7.875 28.7890625 10.30859375 C28.26699219 10.82744141 27.74492188 11.34628906 27.20703125 11.88085938 C26.68496094 12.39455078 26.16289063 12.90824219 25.625 13.4375 C24.80708984 14.24864258 24.80708984 14.24864258 23.97265625 15.07617188 C22.65076536 16.38646723 21.32572382 17.69358284 20 19 C14.67796137 15.31551171 10.06249972 11.25541515 5.5 6.6875 C4.95956055 6.14770508 4.41912109 5.60791016 3.86230469 5.05175781 C0 1.13480959 0 1.13480959 0 0 Z " fill="#F88809" transform="translate(50,12)"/>
<path d="M0 0 C9 6.75 9 6.75 13 10.875 C13.763125 11.65617187 14.52625 12.43734375 15.3125 13.2421875 C16.1478125 14.11230469 16.1478125 14.11230469 17 15 C12.02838782 21.01826738 6.70170757 26.66337352 1 32 C0.67 32 0.34 32 0 32 C0 21.44 0 10.88 0 0 Z " fill="#C757BB" transform="translate(13,54)"/>
<path d="M0 0 C2.78552978 1.08888892 4.31469541 2.6434375 6.3984375 4.77734375 C7.10484375 5.48761719 7.81125 6.19789062 8.5390625 6.9296875 C10.1484375 8.83984375 10.1484375 8.83984375 10.1484375 10.83984375 C2.8884375 10.83984375 -4.3715625 10.83984375 -11.8515625 10.83984375 C-9.8715625 8.52984375 -7.8915625 6.21984375 -5.8515625 3.83984375 C-5.1503125 3.01484375 -4.4490625 2.18984375 -3.7265625 1.33984375 C-1.8515625 -0.16015625 -1.8515625 -0.16015625 0 0 Z " fill="#0194D5" transform="translate(25.8515625,77.16015625)"/>
<path d="M0 0 C7.875 6.75 7.875 6.75 11 10 C9.65843409 14.01064992 7.97314977 16.38703716 4.9375 19.3125 C4.22464844 20.00988281 3.51179687 20.70726563 2.77734375 21.42578125 C1 23 1 23 0 23 C0 15.41 0 7.82 0 0 Z " fill="#0294D3" transform="translate(12,29)"/>
<path d="M0 0 C6.93 0 13.86 0 21 0 C17.37613 4.22784833 13.95773294 8.15867097 10 12 C8.894019 10.75160501 7.79029799 9.50120766 6.6875 8.25 C6.07261719 7.55390625 5.45773438 6.8578125 4.82421875 6.140625 C3.13587428 4.15944134 1.56179848 2.08239797 0 0 Z " fill="#806EE0" transform="translate(28,13)"/>
<path d="M0 0 C1.65 1.32 3.3 2.64 5 4 C3.35 5.32 1.7 6.64 0 8 C0 5.36 0 2.72 0 0 Z " fill="#1D8FCA" transform="translate(12,44)"/>
</svg>
