<?xml version="1.0" encoding="UTF-8"?>
<svg version="1.1" xmlns="http://www.w3.org/2000/svg" width="100" height="100">
<path d="M0 0 C2.41846347 0.80773197 2.41846347 0.80773197 5.27734375 -0.44140625 C34.83390635 -5.23341699 34.83390635 -5.23341699 46.30859375 3.01953125 C50.30883809 6.24923672 52.96366869 8.85365555 53.578125 14.15234375 C53.62985422 26.98119022 49.96088716 37.15472025 44.27734375 48.55859375 C45.39109375 48.68234375 46.50484375 48.80609375 47.65234375 48.93359375 C51.27734375 49.55859375 51.27734375 49.55859375 53.27734375 51.55859375 C53.71484375 54.37109375 53.71484375 54.37109375 53.27734375 57.55859375 C50.40579226 61.1685442 47.76653174 63.43629675 43.27734375 64.55859375 C40.26878278 64.70572405 37.28640546 64.67659617 34.27734375 64.55859375 C34.33535156 65.47640625 34.39335938 66.39421875 34.453125 67.33984375 C34.90335775 79.58617443 34.90335775 79.58617443 30.6875 85.0703125 C27.30176342 88.64362452 24.62991822 89.73096965 19.77734375 89.99609375 C16.55980648 89.87316459 15.2884954 89.56489686 12.40234375 87.93359375 C6.64112953 81.49458962 6.63520164 74.87570466 6.27734375 66.55859375 C5.32859375 66.74421875 4.37984375 66.92984375 3.40234375 67.12109375 C-0.58376003 67.70089066 -4.25155027 67.29663431 -8.23046875 66.80078125 C-10.55761512 66.57463223 -12.70599114 66.61425422 -15.03515625 66.74609375 C-18.72265625 66.55859375 -18.72265625 66.55859375 -21.41015625 65.18359375 C-32.42116151 52.68461481 -35.50592577 32.44372629 -35.03125 16.3125 C-34.55305291 10.49544424 -33.33031307 6.00623527 -29.00390625 1.9453125 C-20.18087235 -4.6906558 -9.95742729 -3.28989889 0 0 Z " fill="#F5F9FC" transform="translate(38.72265625,8.44140625)"/>
<path d="M0 0 C5.37248265 2.33996803 9.37991517 6.55519974 12.625 11.37109375 C13.31640625 13.62109375 13.31640625 13.62109375 13.625 15.37109375 C12.67625 15.82484375 11.7275 16.27859375 10.75 16.74609375 C7.62186321 18.17347629 7.62186321 18.17347629 5.625 20.37109375 C3.85692939 27.2549752 6.36416446 32.37472962 9.75 38.18359375 C10.14751465 38.81740967 10.5450293 39.45122559 10.95458984 40.10424805 C12.0703125 41.953125 12.0703125 41.953125 13.625 45.37109375 C12.88671875 47.70703125 12.88671875 47.70703125 11.625 50.37109375 C11.40124021 52.55217244 11.40124021 52.55217244 11.38671875 54.953125 C11.37060547 55.80326172 11.35449219 56.65339844 11.33789062 57.52929688 C11.32107634 59.28703667 11.31571153 61.04492638 11.32226562 62.80273438 C11.17684467 69.01830762 9.91948404 73.70323875 5.625 78.37109375 C3.17138248 79.8605244 2.02047838 80.38098071 -0.875 80.30859375 C-4.21082811 79.05765821 -5.42164951 77.30111949 -7.375 74.37109375 C-8.33995745 71.4762214 -8.49840263 69.60031424 -8.515625 66.58984375 C-8.54462891 65.20345703 -8.54462891 65.20345703 -8.57421875 63.7890625 C-8.60806928 61.84395912 -8.62630197 59.89852117 -8.62890625 57.953125 C-8.6983446 55.33274092 -8.79664835 52.92874446 -9.375 50.37109375 C-11.72592059 48.1163675 -11.72592059 48.1163675 -14.375 47.37109375 C-14.1584375 46.71625 -13.941875 46.06140625 -13.71875 45.38671875 C-11.20975716 37.16279776 -9.60856696 28.9023785 -12.8125 20.68359375 C-14.17805021 18.5047029 -14.17805021 18.5047029 -15.375 17.37109375 C-17.22391946 17.13745494 -19.07988031 16.9580574 -20.9375 16.80859375 C-21.94941406 16.72480469 -22.96132813 16.64101563 -24.00390625 16.5546875 C-25.17759766 16.46380859 -25.17759766 16.46380859 -26.375 16.37109375 C-25.2933747 10.11694349 -22.55896463 4.21650041 -17.40234375 0.25390625 C-12.05099913 -2.07635171 -5.53059226 -1.46451538 0 0 Z " fill="#0679BE" transform="translate(58.375,13.62890625)"/>
<path d="M0 0 C1.95099609 0.00193359 1.95099609 0.00193359 3.94140625 0.00390625 C7.48968884 0.44397258 8.90052628 1.00381274 11.4375 3.4375 C11.02757813 4.00597656 10.61765625 4.57445312 10.1953125 5.16015625 C9.65648438 5.93230469 9.11765625 6.70445313 8.5625 7.5 C8.02882813 8.25410156 7.49515625 9.00820313 6.9453125 9.78515625 C2.9811012 16.75847095 3.0720518 23.65319458 3.0625 31.5 C3.03800781 32.56283203 3.01351563 33.62566406 2.98828125 34.72070312 C2.96430683 41.1178773 3.48560843 44.43125001 7.4375 49.4375 C7.4375 53.4375 7.4375 53.4375 5.25 56.625 C2.42505638 59.44994362 1.32755129 60.21521136 -2.5625 60.4375 C-12.8643307 49.56334537 -17.00177025 29.88294096 -16.84375 15.2265625 C-16.29595207 9.79423299 -14.18494144 6.0774498 -10.390625 2.2421875 C-6.73555808 -0.09018945 -4.30707354 -0.064157 0 0 Z " fill="#0679BE" transform="translate(24.5625,10.5625)"/>
<path d="M0 0 C7.66214554 -0.45972873 13.57296928 -0.46775115 20 4 C20.99 4.66 21.98 5.32 23 6 C26.2267269 10.84009034 25.69751716 15.36119307 25 21 C23.11231172 30.37516694 19.58964291 38.64684991 15 47 C14.34 46.34 13.68 45.68 13 45 C13.33 44.01 13.66 43.02 14 42 C14.3383797 37.98495671 14.37041385 33.96498254 14.4375 29.9375 C14.50614258 28.29491211 14.50614258 28.29491211 14.57617188 26.61914062 C14.6860223 18.60005936 13.02259417 13.30159743 8 7 C6.0857888 5.08918429 4.19985549 3.5998949 2 2 C1.34 1.34 0.68 0.68 0 0 Z " fill="#0679BE" transform="translate(62,11)"/>
<path d="M0 0 C0.33 0.66 0.66 1.32 1 2 C-0.32 2 -1.64 2 -3 2 C-1.60804085 4.7839183 0.15575779 4.97898997 3 6 C3.4946164 13.54290017 1.90617391 19.058915 -1 26 C-5.21690386 25.21319823 -6.52843079 23.4942875 -9 20 C-10.65497356 16.69005287 -10.10084335 13.00877 -10.0625 9.375 C-10.05798828 8.57320312 -10.05347656 7.77140625 -10.04882812 6.9453125 C-10.03703168 4.96350994 -10.01909605 2.98174567 -10 1 C-6.78548731 -0.60725635 -3.56387464 -0.05748185 0 0 Z " fill="#117FC1" transform="translate(41,34)"/>
<path d="M0 0 C0.33 1.32 0.66 2.64 1 4 C-2.93606919 6.62404613 -6.42590939 6.36302306 -11 6 C-12.74609375 4.48046875 -12.74609375 4.48046875 -14 3 C-9.07015675 0.96006486 -5.42039575 -0.40652968 0 0 Z " fill="#1681C2" transform="translate(45,65)"/>
<path d="M0 0 C4.29 0 8.58 0 13 0 C12 3 12 3 8.8125 4.6875 C5.4652075 6.01535157 2.61508773 6.26451861 -1 6 C-0.67 4.02 -0.34 2.04 0 0 Z " fill="#1883C2" transform="translate(74,63)"/>
<path d="M0 0 C0 6.27 0 12.54 0 19 C-3.23503076 15.76496924 -4.40880303 13.24319191 -6 9 C-6 8.01 -6 7.02 -6 6 C-4.68 5.67 -3.36 5.34 -2 5 C-2 4.34 -2 3.68 -2 3 C-2.66 2.34 -3.32 1.68 -4 1 C-2 0 -2 0 0 0 Z " fill="#2589C6" transform="translate(73,33)"/>
</svg>
